<svg id="visual" viewBox="0 0 960 540" width="960" height="540" xmlns="http://www.w3.org/2000/svg" xmlns:xlink="http://www.w3.org/1999/xlink" version="1.1"><g stroke-width="1" stroke-linejoin="bevel"><path d="M478 247.4L456 180.3L443 209.4Z" fill="#e9e1d2" stroke="#FFFFFF"></path><path d="M478 247.4L537 177.3L456 180.3Z" fill="#bb9887" stroke="#FFFFFF"></path><path d="M478 247.4L565 274.4L537 177.3Z" fill="#ccb4a0" stroke="#FFFFFF"></path><path d="M422 112.3L421 116.1L456 180.3Z" fill="#c6aa97" stroke="#FFFFFF"></path><path d="M456 180.3L368 219.4L443 209.4Z" fill="#c6aa97" stroke="#FFFFFF"></path><path d="M504 74.1L422 112.3L456 180.3Z" fill="#ccb4a0" stroke="#FFFFFF"></path><path d="M421 116.1L368 219.4L456 180.3Z" fill="#f0eadc" stroke="#FFFFFF"></path><path d="M443 209.4L361 311.6L478 247.4Z" fill="#c6aa97" stroke="#FFFFFF"></path><path d="M478 247.4L480 334.6L565 274.4Z" fill="#e3d8c7" stroke="#FFFFFF"></path><path d="M303 152.3L368 219.4L421 116.1Z" fill="#c6aa97" stroke="#FFFFFF"></path><path d="M565 274.4L604 229.4L537 177.3Z" fill="#c6aa97" stroke="#FFFFFF"></path><path d="M361 311.6L480 334.6L478 247.4Z" fill="#c6aa97" stroke="#FFFFFF"></path><path d="M480 334.6L572 297.6L565 274.4Z" fill="#ddcfbd" stroke="#FFFFFF"></path><path d="M565 274.4L572 297.6L604 229.4Z" fill="#e3d8c7" stroke="#FFFFFF"></path><path d="M525 59.1L504 74.1L537 177.3Z" fill="#f0eadc" stroke="#FFFFFF"></path><path d="M537 177.3L504 74.1L456 180.3Z" fill="#bb9887" stroke="#FFFFFF"></path><path d="M480 334.6L570 336.7L572 297.6Z" fill="#c1a18f" stroke="#FFFFFF"></path><path d="M572 297.6L665 277.6L604 229.4Z" fill="#f7f3e7" stroke="#FFFFFF"></path><path d="M649 105.3L525 59.1L537 177.3Z" fill="#bb9887" stroke="#FFFFFF"></path><path d="M504 74.1L487 0L422 112.3Z" fill="#c1a18f" stroke="#FFFFFF"></path><path d="M368 219.4L361 311.6L443 209.4Z" fill="#f7f3e7" stroke="#FFFFFF"></path><path d="M361 311.6L457 378.7L480 334.6Z" fill="#f0eadc" stroke="#FFFFFF"></path><path d="M480 334.6L546 445.9L570 336.7Z" fill="#d7c6b3" stroke="#FFFFFF"></path><path d="M246 210.4L315 281.6L368 219.4Z" fill="#ddcfbd" stroke="#FFFFFF"></path><path d="M368 219.4L315 281.6L361 311.6Z" fill="#c6aa97" stroke="#FFFFFF"></path><path d="M331 383.7L435 420.7L457 378.7Z" fill="#c1a18f" stroke="#FFFFFF"></path><path d="M266 145.3L303 152.3L276 56.1Z" fill="#f7f3e7" stroke="#FFFFFF"></path><path d="M422 112.3L303 152.3L421 116.1Z" fill="#f0eadc" stroke="#FFFFFF"></path><path d="M570 336.7L665 277.6L572 297.6Z" fill="#ddcfbd" stroke="#FFFFFF"></path><path d="M604 229.4L649 105.3L537 177.3Z" fill="#e3d8c7" stroke="#FFFFFF"></path><path d="M678 119.3L649 105.3L604 229.4Z" fill="#d7c6b3" stroke="#FFFFFF"></path><path d="M649 105.3L644 78.1L525 59.1Z" fill="#bb9887" stroke="#FFFFFF"></path><path d="M574 0L487 0L525 59.1Z" fill="#c1a18f" stroke="#FFFFFF"></path><path d="M525 59.1L487 0L504 74.1Z" fill="#d1bda9" stroke="#FFFFFF"></path><path d="M649 105.3L699 97.1L644 78.1Z" fill="#e3d8c7" stroke="#FFFFFF"></path><path d="M735 186.4L678 119.3L604 229.4Z" fill="#d7c6b3" stroke="#FFFFFF"></path><path d="M331 383.7L457 378.7L361 311.6Z" fill="#e9e1d2" stroke="#FFFFFF"></path><path d="M457 378.7L546 445.9L480 334.6Z" fill="#e9e1d2" stroke="#FFFFFF"></path><path d="M276 56.1L303 152.3L422 112.3Z" fill="#d7c6b3" stroke="#FFFFFF"></path><path d="M303 152.3L246 210.4L368 219.4Z" fill="#bb9887" stroke="#FFFFFF"></path><path d="M644 78.1L574 0L525 59.1Z" fill="#d7c6b3" stroke="#FFFFFF"></path><path d="M268 306.6L331 383.7L315 281.6Z" fill="#e9e1d2" stroke="#FFFFFF"></path><path d="M315 281.6L331 383.7L361 311.6Z" fill="#bb9887" stroke="#FFFFFF"></path><path d="M246 210.4L268 306.6L315 281.6Z" fill="#d1bda9" stroke="#FFFFFF"></path><path d="M266 145.3L246 210.4L303 152.3Z" fill="#e9e1d2" stroke="#FFFFFF"></path><path d="M487 0L362 0L422 112.3Z" fill="#e3d8c7" stroke="#FFFFFF"></path><path d="M362 0L358 0L422 112.3Z" fill="#e9e1d2" stroke="#FFFFFF"></path><path d="M678 119.3L699 97.1L649 105.3Z" fill="#ddcfbd" stroke="#FFFFFF"></path><path d="M644 78.1L614 0L574 0Z" fill="#d7c6b3" stroke="#FFFFFF"></path><path d="M735 186.4L699 97.1L678 119.3Z" fill="#f7f3e7" stroke="#FFFFFF"></path><path d="M435 420.7L546 445.9L457 378.7Z" fill="#ccb4a0" stroke="#FFFFFF"></path><path d="M570 336.7L719 339.6L665 277.6Z" fill="#d7c6b3" stroke="#FFFFFF"></path><path d="M751 0L614 0L644 78.1Z" fill="#f0eadc" stroke="#FFFFFF"></path><path d="M546 445.9L619 421.7L570 336.7Z" fill="#e3d8c7" stroke="#FFFFFF"></path><path d="M807 235.4L735 186.4L665 277.6Z" fill="#e9e1d2" stroke="#FFFFFF"></path><path d="M665 277.6L735 186.4L604 229.4Z" fill="#e3d8c7" stroke="#FFFFFF"></path><path d="M358 0L276 56.1L422 112.3Z" fill="#d1bda9" stroke="#FFFFFF"></path><path d="M266 145.3L163 183.3L246 210.4Z" fill="#bb9887" stroke="#FFFFFF"></path><path d="M619 421.7L719 339.6L570 336.7Z" fill="#e9e1d2" stroke="#FFFFFF"></path><path d="M358 0L259 49.1L276 56.1Z" fill="#bb9887" stroke="#FFFFFF"></path><path d="M276 56.1L259 49.1L266 145.3Z" fill="#ddcfbd" stroke="#FFFFFF"></path><path d="M163 183.3L209 266.4L246 210.4Z" fill="#d1bda9" stroke="#FFFFFF"></path><path d="M246 210.4L209 266.4L268 306.6Z" fill="#bb9887" stroke="#FFFFFF"></path><path d="M214 438.9L328 466.9L331 383.7Z" fill="#f0eadc" stroke="#FFFFFF"></path><path d="M435 497.9L474 490.9L435 420.7Z" fill="#e9e1d2" stroke="#FFFFFF"></path><path d="M435 420.7L474 490.9L546 445.9Z" fill="#d1bda9" stroke="#FFFFFF"></path><path d="M546 445.9L603 502.9L619 421.7Z" fill="#ddcfbd" stroke="#FFFFFF"></path><path d="M328 466.9L435 497.9L435 420.7Z" fill="#c1a18f" stroke="#FFFFFF"></path><path d="M328 466.9L435 420.7L331 383.7Z" fill="#c6aa97" stroke="#FFFFFF"></path><path d="M214 438.9L331 383.7L268 306.6Z" fill="#ccb4a0" stroke="#FFFFFF"></path><path d="M807 235.4L784 173.3L735 186.4Z" fill="#e3d8c7" stroke="#FFFFFF"></path><path d="M735 186.4L784 173.3L699 97.1Z" fill="#c1a18f" stroke="#FFFFFF"></path><path d="M699 97.1L751 0L644 78.1Z" fill="#bb9887" stroke="#FFFFFF"></path><path d="M553 540L603 502.9L546 445.9Z" fill="#c6aa97" stroke="#FFFFFF"></path><path d="M619 421.7L703 437.9L719 339.6Z" fill="#e9e1d2" stroke="#FFFFFF"></path><path d="M553 540L546 445.9L474 490.9Z" fill="#bb9887" stroke="#FFFFFF"></path><path d="M603 502.9L703 437.9L619 421.7Z" fill="#c1a18f" stroke="#FFFFFF"></path><path d="M719 339.6L807 235.4L665 277.6Z" fill="#d7c6b3" stroke="#FFFFFF"></path><path d="M126 47.1L163 183.3L266 145.3Z" fill="#e9e1d2" stroke="#FFFFFF"></path><path d="M810 306.6L807 235.4L719 339.6Z" fill="#bb9887" stroke="#FFFFFF"></path><path d="M788 507.9L737 417.7L703 437.9Z" fill="#c1a18f" stroke="#FFFFFF"></path><path d="M703 437.9L737 417.7L719 339.6Z" fill="#c6aa97" stroke="#FFFFFF"></path><path d="M428 540L434 540L435 497.9Z" fill="#ccb4a0" stroke="#FFFFFF"></path><path d="M435 497.9L434 540L474 490.9Z" fill="#e3d8c7" stroke="#FFFFFF"></path><path d="M116 300.6L176 345.7L209 266.4Z" fill="#c1a18f" stroke="#FFFFFF"></path><path d="M209 266.4L176 345.7L268 306.6Z" fill="#c6aa97" stroke="#FFFFFF"></path><path d="M337 540L428 540L435 497.9Z" fill="#c6aa97" stroke="#FFFFFF"></path><path d="M434 540L553 540L474 490.9Z" fill="#d1bda9" stroke="#FFFFFF"></path><path d="M603 502.9L642 540L703 437.9Z" fill="#c6aa97" stroke="#FFFFFF"></path><path d="M790 0L699 97.1L845 47.1Z" fill="#d7c6b3" stroke="#FFFFFF"></path><path d="M790 0L751 0L699 97.1Z" fill="#d1bda9" stroke="#FFFFFF"></path><path d="M816 347.7L810 306.6L719 339.6Z" fill="#c1a18f" stroke="#FFFFFF"></path><path d="M193 421.7L214 438.9L268 306.6Z" fill="#e3d8c7" stroke="#FFFFFF"></path><path d="M328 466.9L337 540L435 497.9Z" fill="#c1a18f" stroke="#FFFFFF"></path><path d="M358 0L191 0L259 49.1Z" fill="#e9e1d2" stroke="#FFFFFF"></path><path d="M259 49.1L126 47.1L266 145.3Z" fill="#bb9887" stroke="#FFFFFF"></path><path d="M810 306.6L836 258.4L807 235.4Z" fill="#c1a18f" stroke="#FFFFFF"></path><path d="M807 235.4L903 183.3L784 173.3Z" fill="#f7f3e7" stroke="#FFFFFF"></path><path d="M176 345.7L193 421.7L268 306.6Z" fill="#ddcfbd" stroke="#FFFFFF"></path><path d="M240 540L328 466.9L214 438.9Z" fill="#bb9887" stroke="#FFFFFF"></path><path d="M240 540L337 540L328 466.9Z" fill="#e3d8c7" stroke="#FFFFFF"></path><path d="M737 417.7L816 347.7L719 339.6Z" fill="#c1a18f" stroke="#FFFFFF"></path><path d="M810 306.6L929 337.6L836 258.4Z" fill="#c1a18f" stroke="#FFFFFF"></path><path d="M553 540L642 540L603 502.9Z" fill="#d7c6b3" stroke="#FFFFFF"></path><path d="M737 417.7L886 410.7L816 347.7Z" fill="#c6aa97" stroke="#FFFFFF"></path><path d="M845 47.1L699 97.1L784 173.3Z" fill="#e3d8c7" stroke="#FFFFFF"></path><path d="M163 183.3L116 300.6L209 266.4Z" fill="#d1bda9" stroke="#FFFFFF"></path><path d="M176 345.7L115 449.9L193 421.7Z" fill="#ddcfbd" stroke="#FFFFFF"></path><path d="M62 262.4L116 300.6L163 183.3Z" fill="#c1a18f" stroke="#FFFFFF"></path><path d="M191 0L126 47.1L259 49.1Z" fill="#e3d8c7" stroke="#FFFFFF"></path><path d="M191 0L147 0L126 47.1Z" fill="#c6aa97" stroke="#FFFFFF"></path><path d="M903 183.3L845 47.1L784 173.3Z" fill="#d7c6b3" stroke="#FFFFFF"></path><path d="M115 449.9L214 438.9L193 421.7Z" fill="#e9e1d2" stroke="#FFFFFF"></path><path d="M135 540L240 540L214 438.9Z" fill="#bb9887" stroke="#FFFFFF"></path><path d="M30 57.1L75 142.3L126 47.1Z" fill="#c1a18f" stroke="#FFFFFF"></path><path d="M126 47.1L75 142.3L163 183.3Z" fill="#e3d8c7" stroke="#FFFFFF"></path><path d="M845 47.1L838 0L790 0Z" fill="#d1bda9" stroke="#FFFFFF"></path><path d="M960 276.4L903 183.3L836 258.4Z" fill="#c1a18f" stroke="#FFFFFF"></path><path d="M836 258.4L903 183.3L807 235.4Z" fill="#d7c6b3" stroke="#FFFFFF"></path><path d="M845 47.1L893 44.1L838 0Z" fill="#e3d8c7" stroke="#FFFFFF"></path><path d="M75 142.3L62 262.4L163 183.3Z" fill="#f7f3e7" stroke="#FFFFFF"></path><path d="M59 384.7L115 449.9L176 345.7Z" fill="#d1bda9" stroke="#FFFFFF"></path><path d="M147 0L112 0L126 47.1Z" fill="#c1a18f" stroke="#FFFFFF"></path><path d="M62 262.4L62 288.6L116 300.6Z" fill="#f0eadc" stroke="#FFFFFF"></path><path d="M766 540L788 507.9L703 437.9Z" fill="#ddcfbd" stroke="#FFFFFF"></path><path d="M816 347.7L929 337.6L810 306.6Z" fill="#c1a18f" stroke="#FFFFFF"></path><path d="M642 540L766 540L703 437.9Z" fill="#f0eadc" stroke="#FFFFFF"></path><path d="M59 384.7L176 345.7L116 300.6Z" fill="#e3d8c7" stroke="#FFFFFF"></path><path d="M903 183.3L893 44.1L845 47.1Z" fill="#f0eadc" stroke="#FFFFFF"></path><path d="M766 540L781 540L788 507.9Z" fill="#ddcfbd" stroke="#FFFFFF"></path><path d="M868 472.9L886 410.7L737 417.7Z" fill="#d7c6b3" stroke="#FFFFFF"></path><path d="M868 472.9L737 417.7L788 507.9Z" fill="#bb9887" stroke="#FFFFFF"></path><path d="M0 331.6L59 384.7L62 288.6Z" fill="#ddcfbd" stroke="#FFFFFF"></path><path d="M62 288.6L59 384.7L116 300.6Z" fill="#d7c6b3" stroke="#FFFFFF"></path><path d="M59 384.7L90 448.9L115 449.9Z" fill="#f0eadc" stroke="#FFFFFF"></path><path d="M115 449.9L135 540L214 438.9Z" fill="#e9e1d2" stroke="#FFFFFF"></path><path d="M886 410.7L929 337.6L816 347.7Z" fill="#e9e1d2" stroke="#FFFFFF"></path><path d="M903 183.3L960 132.3L893 44.1Z" fill="#d1bda9" stroke="#FFFFFF"></path><path d="M900 540L868 472.9L788 507.9Z" fill="#e3d8c7" stroke="#FFFFFF"></path><path d="M960 423.7L960 346.6L929 337.6Z" fill="#e9e1d2" stroke="#FFFFFF"></path><path d="M112 0L30 57.1L126 47.1Z" fill="#f7f3e7" stroke="#FFFFFF"></path><path d="M75 142.3L0 232.4L62 262.4Z" fill="#ddcfbd" stroke="#FFFFFF"></path><path d="M62 262.4L0 232.4L62 288.6Z" fill="#bb9887" stroke="#FFFFFF"></path><path d="M90 448.9L135 540L115 449.9Z" fill="#bb9887" stroke="#FFFFFF"></path><path d="M0 133.3L0 232.4L75 142.3Z" fill="#e3d8c7" stroke="#FFFFFF"></path><path d="M960 346.6L960 276.4L929 337.6Z" fill="#ccb4a0" stroke="#FFFFFF"></path><path d="M929 337.6L960 276.4L836 258.4Z" fill="#c1a18f" stroke="#FFFFFF"></path><path d="M960 276.4L960 132.3L903 183.3Z" fill="#bb9887" stroke="#FFFFFF"></path><path d="M0 102.1L0 133.3L75 142.3Z" fill="#bb9887" stroke="#FFFFFF"></path><path d="M30 57.1L0 102.1L75 142.3Z" fill="#d1bda9" stroke="#FFFFFF"></path><path d="M0 232.4L0 331.6L62 288.6Z" fill="#bb9887" stroke="#FFFFFF"></path><path d="M59 384.7L0 434.7L90 448.9Z" fill="#d7c6b3" stroke="#FFFFFF"></path><path d="M90 448.9L40 540L135 540Z" fill="#e3d8c7" stroke="#FFFFFF"></path><path d="M960 423.7L929 337.6L886 410.7Z" fill="#ddcfbd" stroke="#FFFFFF"></path><path d="M960 132.3L960 51.1L893 44.1Z" fill="#c1a18f" stroke="#FFFFFF"></path><path d="M893 44.1L960 0L838 0Z" fill="#e3d8c7" stroke="#FFFFFF"></path><path d="M960 51.1L960 0L893 44.1Z" fill="#f0eadc" stroke="#FFFFFF"></path><path d="M960 478.9L886 410.7L868 472.9Z" fill="#ccb4a0" stroke="#FFFFFF"></path><path d="M960 478.9L960 423.7L886 410.7Z" fill="#c1a18f" stroke="#FFFFFF"></path><path d="M112 0L0 0L30 57.1Z" fill="#c1a18f" stroke="#FFFFFF"></path><path d="M30 57.1L0 0L0 102.1Z" fill="#f0eadc" stroke="#FFFFFF"></path><path d="M0 331.6L0 434.7L59 384.7Z" fill="#ccb4a0" stroke="#FFFFFF"></path><path d="M781 540L900 540L788 507.9Z" fill="#d7c6b3" stroke="#FFFFFF"></path><path d="M0 434.7L0 446.9L90 448.9Z" fill="#bb9887" stroke="#FFFFFF"></path><path d="M900 540L960 478.9L868 472.9Z" fill="#f7f3e7" stroke="#FFFFFF"></path><path d="M0 446.9L40 540L90 448.9Z" fill="#d1bda9" stroke="#FFFFFF"></path><path d="M900 540L960 540L960 478.9Z" fill="#e3d8c7" stroke="#FFFFFF"></path><path d="M0 446.9L0 540L40 540Z" fill="#ddcfbd" stroke="#FFFFFF"></path></g></svg>