<svg id="visual" viewBox="0 0 960 540" width="960" height="540" xmlns="http://www.w3.org/2000/svg" xmlns:xlink="http://www.w3.org/1999/xlink" version="1.1"><g stroke-width="1" stroke-linejoin="bevel"><path d="M491 274.4L494 322.6L550 321.6Z" fill="#287aa7" stroke="#FFFFFF"></path><path d="M550 321.6L536 247.4L491 274.4Z" fill="#15648f" stroke="#FFFFFF"></path><path d="M494 322.6L535 412.7L550 321.6Z" fill="#0e5f89" stroke="#FFFFFF"></path><path d="M366 340.7L494 418.7L494 322.6Z" fill="#15648f" stroke="#FFFFFF"></path><path d="M494 322.6L494 418.7L535 412.7Z" fill="#3185b4" stroke="#FFFFFF"></path><path d="M642 208.4L536 247.4L550 321.6Z" fill="#0e5f89" stroke="#FFFFFF"></path><path d="M642 208.4L618 184.3L536 247.4Z" fill="#3185b4" stroke="#FFFFFF"></path><path d="M536 247.4L421 151.3L491 274.4Z" fill="#1a6a95" stroke="#FFFFFF"></path><path d="M689 313.6L642 208.4L550 321.6Z" fill="#15648f" stroke="#FFFFFF"></path><path d="M494 418.7L524 446.9L535 412.7Z" fill="#15648f" stroke="#FFFFFF"></path><path d="M535 412.7L603 429.9L550 321.6Z" fill="#2475a1" stroke="#FFFFFF"></path><path d="M618 184.3L527 144.3L536 247.4Z" fill="#2d80ae" stroke="#FFFFFF"></path><path d="M524 446.9L603 429.9L535 412.7Z" fill="#3185b4" stroke="#FFFFFF"></path><path d="M356 206.4L361 293.6L491 274.4Z" fill="#1a6a95" stroke="#FFFFFF"></path><path d="M491 274.4L361 293.6L494 322.6Z" fill="#15648f" stroke="#FFFFFF"></path><path d="M361 293.6L366 340.7L494 322.6Z" fill="#00557d" stroke="#FFFFFF"></path><path d="M494 418.7L519 540L524 446.9Z" fill="#075a83" stroke="#FFFFFF"></path><path d="M682 114.3L609 159.3L618 184.3Z" fill="#15648f" stroke="#FFFFFF"></path><path d="M618 184.3L609 159.3L527 144.3Z" fill="#00557d" stroke="#FFFFFF"></path><path d="M653 409.7L689 313.6L550 321.6Z" fill="#358bba" stroke="#FFFFFF"></path><path d="M603 429.9L653 409.7L550 321.6Z" fill="#15648f" stroke="#FFFFFF"></path><path d="M527 144.3L421 151.3L536 247.4Z" fill="#15648f" stroke="#FFFFFF"></path><path d="M673 421.7L662 412.9L653 409.7Z" fill="#075a83" stroke="#FFFFFF"></path><path d="M653 409.7L662 412.9L689 313.6Z" fill="#1f6f9b" stroke="#FFFFFF"></path><path d="M689 313.6L680 205.4L642 208.4Z" fill="#2475a1" stroke="#FFFFFF"></path><path d="M642 208.4L680 205.4L618 184.3Z" fill="#0e5f89" stroke="#FFFFFF"></path><path d="M421 151.3L356 206.4L491 274.4Z" fill="#287aa7" stroke="#FFFFFF"></path><path d="M603 429.9L673 421.7L653 409.7Z" fill="#358bba" stroke="#FFFFFF"></path><path d="M662 412.9L689 417.9L689 313.6Z" fill="#2d80ae" stroke="#FFFFFF"></path><path d="M596 540L673 421.7L603 429.9Z" fill="#2d80ae" stroke="#FFFFFF"></path><path d="M421 151.3L364 178.3L356 206.4Z" fill="#0e5f89" stroke="#FFFFFF"></path><path d="M673 421.7L689 417.9L662 412.9Z" fill="#3185b4" stroke="#FFFFFF"></path><path d="M305 327.6L356 424.7L366 340.7Z" fill="#1f6f9b" stroke="#FFFFFF"></path><path d="M366 340.7L356 424.7L494 418.7Z" fill="#075a83" stroke="#FFFFFF"></path><path d="M305 327.6L366 340.7L361 293.6Z" fill="#1a6a95" stroke="#FFFFFF"></path><path d="M313 197.4L361 293.6L356 206.4Z" fill="#0e5f89" stroke="#FFFFFF"></path><path d="M313 197.4L305 327.6L361 293.6Z" fill="#358bba" stroke="#FFFFFF"></path><path d="M372 476.9L367 461.9L362 540Z" fill="#1f6f9b" stroke="#FFFFFF"></path><path d="M356 424.7L367 461.9L494 418.7Z" fill="#358bba" stroke="#FFFFFF"></path><path d="M358 118.1L313 197.4L364 178.3Z" fill="#1f6f9b" stroke="#FFFFFF"></path><path d="M364 178.3L313 197.4L356 206.4Z" fill="#0e5f89" stroke="#FFFFFF"></path><path d="M369 540L372 476.9L362 540Z" fill="#1f6f9b" stroke="#FFFFFF"></path><path d="M367 461.9L372 476.9L494 418.7Z" fill="#2475a1" stroke="#FFFFFF"></path><path d="M524 446.9L570 540L603 429.9Z" fill="#00557d" stroke="#FFFFFF"></path><path d="M797 389.7L758 296.6L689 313.6Z" fill="#3185b4" stroke="#FFFFFF"></path><path d="M689 313.6L758 296.6L680 205.4Z" fill="#1f6f9b" stroke="#FFFFFF"></path><path d="M447 48.1L358 118.1L421 151.3Z" fill="#075a83" stroke="#FFFFFF"></path><path d="M421 151.3L358 118.1L364 178.3Z" fill="#3185b4" stroke="#FFFFFF"></path><path d="M754 193.3L682 114.3L680 205.4Z" fill="#1f6f9b" stroke="#FFFFFF"></path><path d="M680 205.4L682 114.3L618 184.3Z" fill="#075a83" stroke="#FFFFFF"></path><path d="M609 159.3L546 47.1L527 144.3Z" fill="#0e5f89" stroke="#FFFFFF"></path><path d="M527 144.3L447 48.1L421 151.3Z" fill="#075a83" stroke="#FFFFFF"></path><path d="M372 476.9L519 540L494 418.7Z" fill="#1f6f9b" stroke="#FFFFFF"></path><path d="M673 421.7L759 540L689 417.9Z" fill="#2d80ae" stroke="#FFFFFF"></path><path d="M519 540L570 540L524 446.9Z" fill="#1a6a95" stroke="#FFFFFF"></path><path d="M669 92.1L546 47.1L609 159.3Z" fill="#3185b4" stroke="#FFFFFF"></path><path d="M682 114.3L669 92.1L609 159.3Z" fill="#1f6f9b" stroke="#FFFFFF"></path><path d="M758 296.6L754 193.3L680 205.4Z" fill="#2d80ae" stroke="#FFFFFF"></path><path d="M682 114.3L717 65.1L669 92.1Z" fill="#15648f" stroke="#FFFFFF"></path><path d="M570 540L596 540L603 429.9Z" fill="#2475a1" stroke="#FFFFFF"></path><path d="M488 33.1L447 48.1L527 144.3Z" fill="#00557d" stroke="#FFFFFF"></path><path d="M546 47.1L488 33.1L527 144.3Z" fill="#00557d" stroke="#FFFFFF"></path><path d="M199 240.4L235 285.6L313 197.4Z" fill="#075a83" stroke="#FFFFFF"></path><path d="M313 197.4L235 285.6L305 327.6Z" fill="#00557d" stroke="#FFFFFF"></path><path d="M305 327.6L233 424.9L356 424.7Z" fill="#2d80ae" stroke="#FFFFFF"></path><path d="M362 540L367 461.9L233 424.9Z" fill="#00557d" stroke="#FFFFFF"></path><path d="M372 476.9L369 540L519 540Z" fill="#358bba" stroke="#FFFFFF"></path><path d="M831 461.9L797 389.7L689 417.9Z" fill="#358bba" stroke="#FFFFFF"></path><path d="M689 417.9L797 389.7L689 313.6Z" fill="#2475a1" stroke="#FFFFFF"></path><path d="M758 296.6L818 216.4L754 193.3Z" fill="#2475a1" stroke="#FFFFFF"></path><path d="M233 424.9L367 461.9L356 424.7Z" fill="#287aa7" stroke="#FFFFFF"></path><path d="M229 97.1L267 150.3L358 118.1Z" fill="#0e5f89" stroke="#FFFFFF"></path><path d="M358 118.1L267 150.3L313 197.4Z" fill="#00557d" stroke="#FFFFFF"></path><path d="M488 33.1L422 0L447 48.1Z" fill="#0e5f89" stroke="#FFFFFF"></path><path d="M447 48.1L355 0L358 118.1Z" fill="#15648f" stroke="#FFFFFF"></path><path d="M546 47.1L525 0L488 33.1Z" fill="#00557d" stroke="#FFFFFF"></path><path d="M604 0L525 0L546 47.1Z" fill="#00557d" stroke="#FFFFFF"></path><path d="M795 116.1L717 65.1L682 114.3Z" fill="#2d80ae" stroke="#FFFFFF"></path><path d="M611 0L604 0L546 47.1Z" fill="#15648f" stroke="#FFFFFF"></path><path d="M843 316.6L818 216.4L758 296.6Z" fill="#1f6f9b" stroke="#FFFFFF"></path><path d="M754 193.3L795 116.1L682 114.3Z" fill="#00557d" stroke="#FFFFFF"></path><path d="M611 0L546 47.1L669 92.1Z" fill="#3185b4" stroke="#FFFFFF"></path><path d="M710 0L611 0L669 92.1Z" fill="#1f6f9b" stroke="#FFFFFF"></path><path d="M525 0L422 0L488 33.1Z" fill="#00557d" stroke="#FFFFFF"></path><path d="M797 389.7L833 335.7L758 296.6Z" fill="#2475a1" stroke="#FFFFFF"></path><path d="M193 397.7L233 424.9L305 327.6Z" fill="#2d80ae" stroke="#FFFFFF"></path><path d="M833 335.7L843 316.6L758 296.6Z" fill="#358bba" stroke="#FFFFFF"></path><path d="M267 150.3L199 240.4L313 197.4Z" fill="#2475a1" stroke="#FFFFFF"></path><path d="M235 285.6L193 397.7L305 327.6Z" fill="#2475a1" stroke="#FFFFFF"></path><path d="M818 216.4L795 116.1L754 193.3Z" fill="#2d80ae" stroke="#FFFFFF"></path><path d="M831 64.1L795 116.1L922 162.3Z" fill="#00557d" stroke="#FFFFFF"></path><path d="M596 540L759 540L673 421.7Z" fill="#1a6a95" stroke="#FFFFFF"></path><path d="M797 389.7L870 422.9L833 335.7Z" fill="#00557d" stroke="#FFFFFF"></path><path d="M833 335.7L918 339.6L843 316.6Z" fill="#1a6a95" stroke="#FFFFFF"></path><path d="M422 0L355 0L447 48.1Z" fill="#0e5f89" stroke="#FFFFFF"></path><path d="M267 150.3L177 176.3L199 240.4Z" fill="#287aa7" stroke="#FFFFFF"></path><path d="M140 365.7L193 397.7L235 285.6Z" fill="#287aa7" stroke="#FFFFFF"></path><path d="M233 424.9L206 540L362 540Z" fill="#15648f" stroke="#FFFFFF"></path><path d="M759 540L831 461.9L689 417.9Z" fill="#1a6a95" stroke="#FFFFFF"></path><path d="M717 65.1L710 0L669 92.1Z" fill="#2d80ae" stroke="#FFFFFF"></path><path d="M817 0L710 0L717 65.1Z" fill="#00557d" stroke="#FFFFFF"></path><path d="M248 0L229 97.1L358 118.1Z" fill="#2d80ae" stroke="#FFFFFF"></path><path d="M229 97.1L177 176.3L267 150.3Z" fill="#1a6a95" stroke="#FFFFFF"></path><path d="M199 240.4L139 249.4L235 285.6Z" fill="#358bba" stroke="#FFFFFF"></path><path d="M759 540L799 540L831 461.9Z" fill="#287aa7" stroke="#FFFFFF"></path><path d="M960 400.7L870 422.9L960 445.9Z" fill="#00557d" stroke="#FFFFFF"></path><path d="M831 461.9L870 422.9L797 389.7Z" fill="#2d80ae" stroke="#FFFFFF"></path><path d="M843 316.6L906 280.4L818 216.4Z" fill="#00557d" stroke="#FFFFFF"></path><path d="M918 339.6L906 280.4L843 316.6Z" fill="#358bba" stroke="#FFFFFF"></path><path d="M177 176.3L139 249.4L199 240.4Z" fill="#0e5f89" stroke="#FFFFFF"></path><path d="M922 162.3L795 116.1L818 216.4Z" fill="#1f6f9b" stroke="#FFFFFF"></path><path d="M795 116.1L831 64.1L717 65.1Z" fill="#2475a1" stroke="#FFFFFF"></path><path d="M121 340.6L140 365.7L235 285.6Z" fill="#2475a1" stroke="#FFFFFF"></path><path d="M140 494.9L206 540L233 424.9Z" fill="#00557d" stroke="#FFFFFF"></path><path d="M140 494.9L233 424.9L193 397.7Z" fill="#287aa7" stroke="#FFFFFF"></path><path d="M870 422.9L918 339.6L833 335.7Z" fill="#1f6f9b" stroke="#FFFFFF"></path><path d="M139 249.4L121 340.6L235 285.6Z" fill="#00557d" stroke="#FFFFFF"></path><path d="M140 365.7L140 494.9L193 397.7Z" fill="#358bba" stroke="#FFFFFF"></path><path d="M355 0L248 0L358 118.1Z" fill="#287aa7" stroke="#FFFFFF"></path><path d="M229 97.1L161 101.1L177 176.3Z" fill="#00557d" stroke="#FFFFFF"></path><path d="M177 176.3L69 202.4L139 249.4Z" fill="#00557d" stroke="#FFFFFF"></path><path d="M248 0L161 101.1L229 97.1Z" fill="#1a6a95" stroke="#FFFFFF"></path><path d="M139 249.4L60 338.6L121 340.6Z" fill="#00557d" stroke="#FFFFFF"></path><path d="M864 0L817 0L831 64.1Z" fill="#1f6f9b" stroke="#FFFFFF"></path><path d="M831 64.1L817 0L717 65.1Z" fill="#00557d" stroke="#FFFFFF"></path><path d="M906 280.4L922 162.3L818 216.4Z" fill="#287aa7" stroke="#FFFFFF"></path><path d="M960 215.4L922 162.3L906 280.4Z" fill="#00557d" stroke="#FFFFFF"></path><path d="M57 455.9L140 494.9L140 365.7Z" fill="#075a83" stroke="#FFFFFF"></path><path d="M960 400.7L960 325.6L918 339.6Z" fill="#287aa7" stroke="#FFFFFF"></path><path d="M918 339.6L960 325.6L906 280.4Z" fill="#358bba" stroke="#FFFFFF"></path><path d="M960 400.7L918 339.6L870 422.9Z" fill="#15648f" stroke="#FFFFFF"></path><path d="M960 325.6L960 215.4L906 280.4Z" fill="#358bba" stroke="#FFFFFF"></path><path d="M960 104.3L864 0L831 64.1Z" fill="#287aa7" stroke="#FFFFFF"></path><path d="M960 445.9L870 422.9L916 540Z" fill="#1f6f9b" stroke="#FFFFFF"></path><path d="M960 104.3L831 64.1L922 162.3Z" fill="#358bba" stroke="#FFFFFF"></path><path d="M64 153.3L177 176.3L161 101.1Z" fill="#0e5f89" stroke="#FFFFFF"></path><path d="M64 153.3L69 202.4L177 176.3Z" fill="#1f6f9b" stroke="#FFFFFF"></path><path d="M121 340.6L46 399.7L140 365.7Z" fill="#2475a1" stroke="#FFFFFF"></path><path d="M916 540L870 422.9L831 461.9Z" fill="#1a6a95" stroke="#FFFFFF"></path><path d="M69 202.4L60 338.6L139 249.4Z" fill="#0e5f89" stroke="#FFFFFF"></path><path d="M799 540L916 540L831 461.9Z" fill="#1a6a95" stroke="#FFFFFF"></path><path d="M140 494.9L123 540L206 540Z" fill="#358bba" stroke="#FFFFFF"></path><path d="M57 455.9L123 540L140 494.9Z" fill="#287aa7" stroke="#FFFFFF"></path><path d="M960 215.4L960 121.1L922 162.3Z" fill="#287aa7" stroke="#FFFFFF"></path><path d="M960 121.1L960 104.3L922 162.3Z" fill="#2d80ae" stroke="#FFFFFF"></path><path d="M37 68.1L64 153.3L161 101.1Z" fill="#15648f" stroke="#FFFFFF"></path><path d="M0 210.4L0 332.6L60 338.6Z" fill="#3185b4" stroke="#FFFFFF"></path><path d="M0 368.7L46 399.7L60 338.6Z" fill="#3185b4" stroke="#FFFFFF"></path><path d="M60 338.6L46 399.7L121 340.6Z" fill="#358bba" stroke="#FFFFFF"></path><path d="M46 399.7L57 455.9L140 365.7Z" fill="#00557d" stroke="#FFFFFF"></path><path d="M248 0L124 0L161 101.1Z" fill="#358bba" stroke="#FFFFFF"></path><path d="M916 540L960 540L960 445.9Z" fill="#075a83" stroke="#FFFFFF"></path><path d="M124 0L99 0L161 101.1Z" fill="#1a6a95" stroke="#FFFFFF"></path><path d="M0 210.4L60 338.6L69 202.4Z" fill="#2475a1" stroke="#FFFFFF"></path><path d="M46 399.7L0 464.9L57 455.9Z" fill="#0e5f89" stroke="#FFFFFF"></path><path d="M0 210.4L69 202.4L64 153.3Z" fill="#2475a1" stroke="#FFFFFF"></path><path d="M0 332.6L0 368.7L60 338.6Z" fill="#358bba" stroke="#FFFFFF"></path><path d="M0 144.3L0 210.4L64 153.3Z" fill="#0e5f89" stroke="#FFFFFF"></path><path d="M960 104.3L960 0L864 0Z" fill="#0e5f89" stroke="#FFFFFF"></path><path d="M99 0L37 68.1L161 101.1Z" fill="#3185b4" stroke="#FFFFFF"></path><path d="M37 68.1L0 144.3L64 153.3Z" fill="#1f6f9b" stroke="#FFFFFF"></path><path d="M0 368.7L0 464.9L46 399.7Z" fill="#0e5f89" stroke="#FFFFFF"></path><path d="M57 455.9L0 540L123 540Z" fill="#15648f" stroke="#FFFFFF"></path><path d="M0 0L0 82.1L37 68.1Z" fill="#0e5f89" stroke="#FFFFFF"></path><path d="M37 68.1L0 82.1L0 144.3Z" fill="#2d80ae" stroke="#FFFFFF"></path><path d="M0 464.9L0 540L57 455.9Z" fill="#1f6f9b" stroke="#FFFFFF"></path><path d="M99 0L0 0L37 68.1Z" fill="#1f6f9b" stroke="#FFFFFF"></path></g></svg>