<svg id="visual" viewBox="0 0 900 600" width="900" height="600" xmlns="http://www.w3.org/2000/svg" xmlns:xlink="http://www.w3.org/1999/xlink" version="1.1"><g stroke-width="2" stroke-linejoin="bevel"><path d="M435 316L510 393L507 303Z" fill="#afafaf" stroke="#FFFFFF"></path><path d="M435 316L432 394L510 393Z" fill="#bbbbbb" stroke="#FFFFFF"></path><path d="M432 394L436 445L510 393Z" fill="#a3a3a3" stroke="#FFFFFF"></path><path d="M436 445L521 445L510 393Z" fill="#d9d9d9" stroke="#FFFFFF"></path><path d="M510 393L614 320L507 303Z" fill="#a3a3a3" stroke="#FFFFFF"></path><path d="M435 316L365 394L432 394Z" fill="#cdcdcd" stroke="#FFFFFF"></path><path d="M432 394L378 444L436 445Z" fill="#afafaf" stroke="#FFFFFF"></path><path d="M365 236L357 292L435 316Z" fill="#d9d9d9" stroke="#FFFFFF"></path><path d="M435 316L357 292L365 394Z" fill="#a9a9a9" stroke="#FFFFFF"></path><path d="M521 445L610 381L510 393Z" fill="#c7c7c7" stroke="#FFFFFF"></path><path d="M365 394L378 444L432 394Z" fill="#c7c7c7" stroke="#FFFFFF"></path><path d="M610 381L614 320L510 393Z" fill="#c7c7c7" stroke="#FFFFFF"></path><path d="M603 207L505 212L507 303Z" fill="#bbbbbb" stroke="#FFFFFF"></path><path d="M507 303L451 204L435 316Z" fill="#9d9d9d" stroke="#FFFFFF"></path><path d="M505 212L451 204L507 303Z" fill="#9d9d9d" stroke="#FFFFFF"></path><path d="M451 204L365 236L435 316Z" fill="#a9a9a9" stroke="#FFFFFF"></path><path d="M521 445L606 457L610 381Z" fill="#a9a9a9" stroke="#FFFFFF"></path><path d="M610 381L674 371L614 320Z" fill="#a3a3a3" stroke="#FFFFFF"></path><path d="M545 517L606 457L521 445Z" fill="#a9a9a9" stroke="#FFFFFF"></path><path d="M450 524L521 445L436 445Z" fill="#9d9d9d" stroke="#FFFFFF"></path><path d="M365 236L316 280L357 292Z" fill="#d3d3d3" stroke="#FFFFFF"></path><path d="M357 292L297 385L365 394Z" fill="#d3d3d3" stroke="#FFFFFF"></path><path d="M365 394L297 385L378 444Z" fill="#d9d9d9" stroke="#FFFFFF"></path><path d="M374 522L450 524L436 445Z" fill="#d9d9d9" stroke="#FFFFFF"></path><path d="M450 524L545 517L521 445Z" fill="#9d9d9d" stroke="#FFFFFF"></path><path d="M316 280L297 385L357 292Z" fill="#b5b5b5" stroke="#FFFFFF"></path><path d="M378 444L374 522L436 445Z" fill="#a9a9a9" stroke="#FFFFFF"></path><path d="M505 212L455 163L451 204Z" fill="#afafaf" stroke="#FFFFFF"></path><path d="M451 204L371 142L365 236Z" fill="#bbbbbb" stroke="#FFFFFF"></path><path d="M614 320L603 207L507 303Z" fill="#cdcdcd" stroke="#FFFFFF"></path><path d="M505 212L523 164L455 163Z" fill="#9d9d9d" stroke="#FFFFFF"></path><path d="M603 207L523 164L505 212Z" fill="#b5b5b5" stroke="#FFFFFF"></path><path d="M671 451L674 371L610 381Z" fill="#9d9d9d" stroke="#FFFFFF"></path><path d="M614 320L687 211L603 207Z" fill="#b5b5b5" stroke="#FFFFFF"></path><path d="M288 470L374 522L378 444Z" fill="#a3a3a3" stroke="#FFFFFF"></path><path d="M609 600L590 522L545 517Z" fill="#b5b5b5" stroke="#FFFFFF"></path><path d="M545 517L590 522L606 457Z" fill="#9d9d9d" stroke="#FFFFFF"></path><path d="M606 457L671 451L610 381Z" fill="#c1c1c1" stroke="#FFFFFF"></path><path d="M674 371L690 317L614 320Z" fill="#c1c1c1" stroke="#FFFFFF"></path><path d="M678 543L671 451L606 457Z" fill="#a9a9a9" stroke="#FFFFFF"></path><path d="M674 371L740 315L690 317Z" fill="#d9d9d9" stroke="#FFFFFF"></path><path d="M297 385L288 470L378 444Z" fill="#a9a9a9" stroke="#FFFFFF"></path><path d="M603 207L605 154L523 164Z" fill="#c1c1c1" stroke="#FFFFFF"></path><path d="M386 92L371 142L455 163Z" fill="#cdcdcd" stroke="#FFFFFF"></path><path d="M687 211L605 154L603 207Z" fill="#d3d3d3" stroke="#FFFFFF"></path><path d="M455 163L371 142L451 204Z" fill="#9d9d9d" stroke="#FFFFFF"></path><path d="M365 236L287 211L316 280Z" fill="#a9a9a9" stroke="#FFFFFF"></path><path d="M386 92L455 163L464 70Z" fill="#d9d9d9" stroke="#FFFFFF"></path><path d="M371 142L287 211L365 236Z" fill="#afafaf" stroke="#FFFFFF"></path><path d="M316 280L217 280L297 385Z" fill="#c1c1c1" stroke="#FFFFFF"></path><path d="M297 385L223 433L288 470Z" fill="#cdcdcd" stroke="#FFFFFF"></path><path d="M690 317L687 211L614 320Z" fill="#c7c7c7" stroke="#FFFFFF"></path><path d="M360 600L468 600L450 524Z" fill="#afafaf" stroke="#FFFFFF"></path><path d="M450 524L504 600L545 517Z" fill="#9d9d9d" stroke="#FFFFFF"></path><path d="M360 600L450 524L374 522Z" fill="#a9a9a9" stroke="#FFFFFF"></path><path d="M468 600L504 600L450 524Z" fill="#a3a3a3" stroke="#FFFFFF"></path><path d="M678 543L731 459L671 451Z" fill="#a9a9a9" stroke="#FFFFFF"></path><path d="M288 470L291 521L374 522Z" fill="#afafaf" stroke="#FFFFFF"></path><path d="M240 145L238 241L287 211Z" fill="#c1c1c1" stroke="#FFFFFF"></path><path d="M287 211L238 241L316 280Z" fill="#c7c7c7" stroke="#FFFFFF"></path><path d="M288 470L210 533L291 521Z" fill="#d3d3d3" stroke="#FFFFFF"></path><path d="M770 357L740 315L674 371Z" fill="#a9a9a9" stroke="#FFFFFF"></path><path d="M690 317L734 210L687 211Z" fill="#a3a3a3" stroke="#FFFFFF"></path><path d="M210 383L223 433L297 385Z" fill="#9d9d9d" stroke="#FFFFFF"></path><path d="M238 241L217 280L316 280Z" fill="#afafaf" stroke="#FFFFFF"></path><path d="M217 280L210 383L297 385Z" fill="#cdcdcd" stroke="#FFFFFF"></path><path d="M464 70L455 163L504 67Z" fill="#d9d9d9" stroke="#FFFFFF"></path><path d="M371 142L281 132L287 211Z" fill="#d9d9d9" stroke="#FFFFFF"></path><path d="M678 543L606 457L590 522Z" fill="#9d9d9d" stroke="#FFFFFF"></path><path d="M671 451L731 459L674 371Z" fill="#d9d9d9" stroke="#FFFFFF"></path><path d="M315 600L360 600L374 522Z" fill="#a9a9a9" stroke="#FFFFFF"></path><path d="M609 600L678 543L590 522Z" fill="#9d9d9d" stroke="#FFFFFF"></path><path d="M504 67L455 163L523 164Z" fill="#b5b5b5" stroke="#FFFFFF"></path><path d="M504 600L609 600L545 517Z" fill="#a9a9a9" stroke="#FFFFFF"></path><path d="M583 83L504 67L523 164Z" fill="#cdcdcd" stroke="#FFFFFF"></path><path d="M583 83L523 164L605 154Z" fill="#c7c7c7" stroke="#FFFFFF"></path><path d="M667 133L583 83L605 154Z" fill="#a9a9a9" stroke="#FFFFFF"></path><path d="M748 153L667 133L687 211Z" fill="#bbbbbb" stroke="#FFFFFF"></path><path d="M687 211L667 133L605 154Z" fill="#a3a3a3" stroke="#FFFFFF"></path><path d="M740 315L734 210L690 317Z" fill="#d3d3d3" stroke="#FFFFFF"></path><path d="M731 459L770 357L674 371Z" fill="#b5b5b5" stroke="#FFFFFF"></path><path d="M740 315L827 234L734 210Z" fill="#c1c1c1" stroke="#FFFFFF"></path><path d="M314 83L281 132L371 142Z" fill="#9d9d9d" stroke="#FFFFFF"></path><path d="M147 215L131 286L217 280Z" fill="#bbbbbb" stroke="#FFFFFF"></path><path d="M243 600L315 600L291 521Z" fill="#a9a9a9" stroke="#FFFFFF"></path><path d="M291 521L315 600L374 522Z" fill="#c1c1c1" stroke="#FFFFFF"></path><path d="M386 92L314 83L371 142Z" fill="#b5b5b5" stroke="#FFFFFF"></path><path d="M377 0L314 83L386 92Z" fill="#afafaf" stroke="#FFFFFF"></path><path d="M227 60L240 145L281 132Z" fill="#afafaf" stroke="#FFFFFF"></path><path d="M281 132L240 145L287 211Z" fill="#c7c7c7" stroke="#FFFFFF"></path><path d="M609 600L675 600L678 543Z" fill="#a3a3a3" stroke="#FFFFFF"></path><path d="M678 543L749 529L731 459Z" fill="#d3d3d3" stroke="#FFFFFF"></path><path d="M223 433L210 533L288 470Z" fill="#a3a3a3" stroke="#FFFFFF"></path><path d="M160 430L210 533L223 433Z" fill="#afafaf" stroke="#FFFFFF"></path><path d="M729 600L749 529L678 543Z" fill="#d3d3d3" stroke="#FFFFFF"></path><path d="M731 459L810 444L770 357Z" fill="#a9a9a9" stroke="#FFFFFF"></path><path d="M132 355L160 430L210 383Z" fill="#bbbbbb" stroke="#FFFFFF"></path><path d="M210 383L160 430L223 433Z" fill="#d9d9d9" stroke="#FFFFFF"></path><path d="M132 355L210 383L217 280Z" fill="#a3a3a3" stroke="#FFFFFF"></path><path d="M827 234L748 153L734 210Z" fill="#bbbbbb" stroke="#FFFFFF"></path><path d="M734 210L748 153L687 211Z" fill="#d3d3d3" stroke="#FFFFFF"></path><path d="M667 133L674 63L583 83Z" fill="#d9d9d9" stroke="#FFFFFF"></path><path d="M210 533L243 600L291 521Z" fill="#9d9d9d" stroke="#FFFFFF"></path><path d="M749 529L810 444L731 459Z" fill="#d9d9d9" stroke="#FFFFFF"></path><path d="M770 357L837 293L740 315Z" fill="#c7c7c7" stroke="#FFFFFF"></path><path d="M131 286L132 355L217 280Z" fill="#cdcdcd" stroke="#FFFFFF"></path><path d="M740 85L674 63L667 133Z" fill="#afafaf" stroke="#FFFFFF"></path><path d="M580 0L518 0L504 67Z" fill="#c7c7c7" stroke="#FFFFFF"></path><path d="M580 0L504 67L583 83Z" fill="#9d9d9d" stroke="#FFFFFF"></path><path d="M504 67L518 0L464 70Z" fill="#d9d9d9" stroke="#FFFFFF"></path><path d="M464 70L437 0L386 92Z" fill="#d9d9d9" stroke="#FFFFFF"></path><path d="M518 0L437 0L464 70Z" fill="#d3d3d3" stroke="#FFFFFF"></path><path d="M147 215L217 280L238 241Z" fill="#d3d3d3" stroke="#FFFFFF"></path><path d="M675 600L729 600L678 543Z" fill="#c1c1c1" stroke="#FFFFFF"></path><path d="M749 529L824 534L810 444Z" fill="#a9a9a9" stroke="#FFFFFF"></path><path d="M168 156L147 215L238 241Z" fill="#a3a3a3" stroke="#FFFFFF"></path><path d="M168 156L238 241L240 145Z" fill="#a3a3a3" stroke="#FFFFFF"></path><path d="M810 444L840 379L770 357Z" fill="#c7c7c7" stroke="#FFFFFF"></path><path d="M840 379L837 293L770 357Z" fill="#bbbbbb" stroke="#FFFFFF"></path><path d="M437 0L377 0L386 92Z" fill="#c1c1c1" stroke="#FFFFFF"></path><path d="M160 84L168 156L240 145Z" fill="#c1c1c1" stroke="#FFFFFF"></path><path d="M674 63L580 0L583 83Z" fill="#d3d3d3" stroke="#FFFFFF"></path><path d="M227 60L281 132L314 83Z" fill="#c1c1c1" stroke="#FFFFFF"></path><path d="M837 293L827 234L740 315Z" fill="#b5b5b5" stroke="#FFFFFF"></path><path d="M748 153L740 85L667 133Z" fill="#afafaf" stroke="#FFFFFF"></path><path d="M833 147L740 85L748 153Z" fill="#a3a3a3" stroke="#FFFFFF"></path><path d="M674 63L686 0L580 0Z" fill="#bbbbbb" stroke="#FFFFFF"></path><path d="M280 0L227 60L314 83Z" fill="#bbbbbb" stroke="#FFFFFF"></path><path d="M80 392L160 430L132 355Z" fill="#9d9d9d" stroke="#FFFFFF"></path><path d="M90 537L134 537L59 466Z" fill="#d3d3d3" stroke="#FFFFFF"></path><path d="M160 430L134 537L210 533Z" fill="#a3a3a3" stroke="#FFFFFF"></path><path d="M210 533L165 600L243 600Z" fill="#d3d3d3" stroke="#FFFFFF"></path><path d="M831 600L824 534L749 529Z" fill="#afafaf" stroke="#FFFFFF"></path><path d="M900 443L900 377L840 379Z" fill="#a3a3a3" stroke="#FFFFFF"></path><path d="M56 237L82 295L131 286Z" fill="#c7c7c7" stroke="#FFFFFF"></path><path d="M131 286L82 295L132 355Z" fill="#c1c1c1" stroke="#FFFFFF"></path><path d="M56 237L131 286L147 215Z" fill="#c1c1c1" stroke="#FFFFFF"></path><path d="M86 159L147 215L168 156Z" fill="#c1c1c1" stroke="#FFFFFF"></path><path d="M82 295L80 392L132 355Z" fill="#a9a9a9" stroke="#FFFFFF"></path><path d="M134 537L165 600L210 533Z" fill="#c1c1c1" stroke="#FFFFFF"></path><path d="M377 0L280 0L314 83Z" fill="#b5b5b5" stroke="#FFFFFF"></path><path d="M751 0L686 0L674 63Z" fill="#a9a9a9" stroke="#FFFFFF"></path><path d="M827 234L833 147L748 153Z" fill="#9d9d9d" stroke="#FFFFFF"></path><path d="M740 85L751 0L674 63Z" fill="#d3d3d3" stroke="#FFFFFF"></path><path d="M900 220L833 147L827 234Z" fill="#cdcdcd" stroke="#FFFFFF"></path><path d="M900 220L827 234L837 293Z" fill="#cdcdcd" stroke="#FFFFFF"></path><path d="M137 0L160 84L227 60Z" fill="#9d9d9d" stroke="#FFFFFF"></path><path d="M227 60L160 84L240 145Z" fill="#afafaf" stroke="#FFFFFF"></path><path d="M900 443L840 379L810 444Z" fill="#9d9d9d" stroke="#FFFFFF"></path><path d="M840 379L900 300L837 293Z" fill="#b5b5b5" stroke="#FFFFFF"></path><path d="M900 377L900 300L840 379Z" fill="#bbbbbb" stroke="#FFFFFF"></path><path d="M280 0L233 0L227 60Z" fill="#c1c1c1" stroke="#FFFFFF"></path><path d="M59 466L134 537L160 430Z" fill="#cdcdcd" stroke="#FFFFFF"></path><path d="M134 537L90 537L165 600Z" fill="#b5b5b5" stroke="#FFFFFF"></path><path d="M900 518L900 443L810 444Z" fill="#d9d9d9" stroke="#FFFFFF"></path><path d="M729 600L831 600L749 529Z" fill="#b5b5b5" stroke="#FFFFFF"></path><path d="M824 534L900 518L810 444Z" fill="#d9d9d9" stroke="#FFFFFF"></path><path d="M0 456L59 466L80 392Z" fill="#9d9d9d" stroke="#FFFFFF"></path><path d="M80 392L59 466L160 430Z" fill="#c7c7c7" stroke="#FFFFFF"></path><path d="M160 84L86 159L168 156Z" fill="#bbbbbb" stroke="#FFFFFF"></path><path d="M82 295L0 378L80 392Z" fill="#cdcdcd" stroke="#FFFFFF"></path><path d="M60 56L86 159L160 84Z" fill="#d9d9d9" stroke="#FFFFFF"></path><path d="M86 159L56 237L147 215Z" fill="#c1c1c1" stroke="#FFFFFF"></path><path d="M900 300L900 220L837 293Z" fill="#d3d3d3" stroke="#FFFFFF"></path><path d="M806 0L751 0L740 85Z" fill="#a9a9a9" stroke="#FFFFFF"></path><path d="M841 64L740 85L833 147Z" fill="#cdcdcd" stroke="#FFFFFF"></path><path d="M900 600L900 518L824 534Z" fill="#bbbbbb" stroke="#FFFFFF"></path><path d="M900 71L841 64L833 147Z" fill="#9d9d9d" stroke="#FFFFFF"></path><path d="M900 220L900 159L833 147Z" fill="#9d9d9d" stroke="#FFFFFF"></path><path d="M900 0L806 0L841 64Z" fill="#afafaf" stroke="#FFFFFF"></path><path d="M841 64L806 0L740 85Z" fill="#9d9d9d" stroke="#FFFFFF"></path><path d="M0 279L0 378L82 295Z" fill="#d9d9d9" stroke="#FFFFFF"></path><path d="M0 545L59 600L90 537Z" fill="#d9d9d9" stroke="#FFFFFF"></path><path d="M0 279L82 295L56 237Z" fill="#afafaf" stroke="#FFFFFF"></path><path d="M0 219L0 279L56 237Z" fill="#d3d3d3" stroke="#FFFFFF"></path><path d="M233 0L137 0L227 60Z" fill="#bbbbbb" stroke="#FFFFFF"></path><path d="M0 164L0 219L56 237Z" fill="#9d9d9d" stroke="#FFFFFF"></path><path d="M90 537L59 600L165 600Z" fill="#b5b5b5" stroke="#FFFFFF"></path><path d="M0 545L90 537L59 466Z" fill="#bbbbbb" stroke="#FFFFFF"></path><path d="M0 378L0 456L80 392Z" fill="#b5b5b5" stroke="#FFFFFF"></path><path d="M831 600L900 600L824 534Z" fill="#c7c7c7" stroke="#FFFFFF"></path><path d="M0 164L56 237L86 159Z" fill="#9d9d9d" stroke="#FFFFFF"></path><path d="M900 159L900 71L833 147Z" fill="#cdcdcd" stroke="#FFFFFF"></path><path d="M94 0L60 56L160 84Z" fill="#cdcdcd" stroke="#FFFFFF"></path><path d="M0 74L0 164L86 159Z" fill="#a9a9a9" stroke="#FFFFFF"></path><path d="M0 456L0 545L59 466Z" fill="#bbbbbb" stroke="#FFFFFF"></path><path d="M137 0L94 0L160 84Z" fill="#d9d9d9" stroke="#FFFFFF"></path><path d="M0 545L0 600L59 600Z" fill="#afafaf" stroke="#FFFFFF"></path><path d="M900 71L900 0L841 64Z" fill="#d9d9d9" stroke="#FFFFFF"></path><path d="M0 0L0 74L60 56Z" fill="#c1c1c1" stroke="#FFFFFF"></path><path d="M60 56L0 74L86 159Z" fill="#c7c7c7" stroke="#FFFFFF"></path><path d="M94 0L0 0L60 56Z" fill="#cdcdcd" stroke="#FFFFFF"></path></g></svg>