<svg id="visual" viewBox="0 0 900 600" width="900" height="600" xmlns="http://www.w3.org/2000/svg" xmlns:xlink="http://www.w3.org/1999/xlink" version="1.1"><g stroke-width="1" stroke-linejoin="bevel"><path d="M462 299L519 303L503 234Z" fill="#758e89" stroke="#FFFFFF"></path><path d="M589 200L504 223L503 234Z" fill="#3f625a" stroke="#FFFFFF"></path><path d="M503 234L435 216L462 299Z" fill="#c2cdcb" stroke="#FFFFFF"></path><path d="M504 223L492 204L503 234Z" fill="#9bada9" stroke="#FFFFFF"></path><path d="M492 204L435 216L503 234Z" fill="#d6dedc" stroke="#FFFFFF"></path><path d="M462 299L527 356L519 303Z" fill="#ffffff" stroke="#FFFFFF"></path><path d="M435 216L404 302L462 299Z" fill="#517069" stroke="#FFFFFF"></path><path d="M462 299L517 374L527 356Z" fill="#c2cdcb" stroke="#FFFFFF"></path><path d="M446 386L517 374L462 299Z" fill="#ffffff" stroke="#FFFFFF"></path><path d="M404 302L398 319L462 299Z" fill="#d6dedc" stroke="#FFFFFF"></path><path d="M461 139L403 209L435 216Z" fill="#637f79" stroke="#FFFFFF"></path><path d="M435 216L403 209L404 302Z" fill="#3f625a" stroke="#FFFFFF"></path><path d="M404 302L367 296L398 319Z" fill="#eaeeed" stroke="#FFFFFF"></path><path d="M608 230L503 234L519 303Z" fill="#3f625a" stroke="#FFFFFF"></path><path d="M608 230L589 200L503 234Z" fill="#ffffff" stroke="#FFFFFF"></path><path d="M504 223L589 200L492 204Z" fill="#517069" stroke="#FFFFFF"></path><path d="M398 319L446 386L462 299Z" fill="#3f625a" stroke="#FFFFFF"></path><path d="M635 326L519 303L527 356Z" fill="#889d99" stroke="#FFFFFF"></path><path d="M637 301L608 230L519 303Z" fill="#c2cdcb" stroke="#FFFFFF"></path><path d="M589 200L495 147L492 204Z" fill="#d6dedc" stroke="#FFFFFF"></path><path d="M492 204L461 139L435 216Z" fill="#9bada9" stroke="#FFFFFF"></path><path d="M403 209L367 296L404 302Z" fill="#758e89" stroke="#FFFFFF"></path><path d="M398 319L401 377L446 386Z" fill="#889d99" stroke="#FFFFFF"></path><path d="M579 432L562 380L517 374Z" fill="#aebdba" stroke="#FFFFFF"></path><path d="M517 374L562 380L527 356Z" fill="#637f79" stroke="#FFFFFF"></path><path d="M495 147L461 139L492 204Z" fill="#9bada9" stroke="#FFFFFF"></path><path d="M367 296L401 377L398 319Z" fill="#637f79" stroke="#FFFFFF"></path><path d="M401 377L424 398L446 386Z" fill="#aebdba" stroke="#FFFFFF"></path><path d="M499 468L579 432L517 374Z" fill="#d6dedc" stroke="#FFFFFF"></path><path d="M635 326L637 301L519 303Z" fill="#ffffff" stroke="#FFFFFF"></path><path d="M637 301L634 218L608 230Z" fill="#9bada9" stroke="#FFFFFF"></path><path d="M608 230L634 218L589 200Z" fill="#eaeeed" stroke="#FFFFFF"></path><path d="M594 103L543 85L495 147Z" fill="#ffffff" stroke="#FFFFFF"></path><path d="M562 380L635 326L527 356Z" fill="#758e89" stroke="#FFFFFF"></path><path d="M562 380L626 356L635 326Z" fill="#3f625a" stroke="#FFFFFF"></path><path d="M461 139L383 152L403 209Z" fill="#ffffff" stroke="#FFFFFF"></path><path d="M403 209L312 280L367 296Z" fill="#eaeeed" stroke="#FFFFFF"></path><path d="M634 218L628 179L589 200Z" fill="#eaeeed" stroke="#FFFFFF"></path><path d="M628 179L622 161L589 200Z" fill="#517069" stroke="#FFFFFF"></path><path d="M467 80L441 91L461 139Z" fill="#889d99" stroke="#FFFFFF"></path><path d="M289 221L312 280L403 209Z" fill="#637f79" stroke="#FFFFFF"></path><path d="M367 296L260 342L401 377Z" fill="#637f79" stroke="#FFFFFF"></path><path d="M499 468L517 374L446 386Z" fill="#758e89" stroke="#FFFFFF"></path><path d="M562 380L579 432L626 356Z" fill="#d6dedc" stroke="#FFFFFF"></path><path d="M626 356L672 302L635 326Z" fill="#d6dedc" stroke="#FFFFFF"></path><path d="M635 326L672 302L637 301Z" fill="#d6dedc" stroke="#FFFFFF"></path><path d="M637 301L672 302L634 218Z" fill="#9bada9" stroke="#FFFFFF"></path><path d="M634 218L703 175L628 179Z" fill="#aebdba" stroke="#FFFFFF"></path><path d="M628 179L703 175L622 161Z" fill="#517069" stroke="#FFFFFF"></path><path d="M706 412L672 302L626 356Z" fill="#3f625a" stroke="#FFFFFF"></path><path d="M499 79L461 139L495 147Z" fill="#637f79" stroke="#FFFFFF"></path><path d="M461 139L441 91L383 152Z" fill="#eaeeed" stroke="#FFFFFF"></path><path d="M385 471L454 461L424 398Z" fill="#c2cdcb" stroke="#FFFFFF"></path><path d="M424 398L454 461L446 386Z" fill="#758e89" stroke="#FFFFFF"></path><path d="M385 471L424 398L401 377Z" fill="#517069" stroke="#FFFFFF"></path><path d="M348 55L347 147L383 152Z" fill="#758e89" stroke="#FFFFFF"></path><path d="M383 152L347 147L403 209Z" fill="#758e89" stroke="#FFFFFF"></path><path d="M543 85L499 79L495 147Z" fill="#3f625a" stroke="#FFFFFF"></path><path d="M499 79L467 80L461 139Z" fill="#758e89" stroke="#FFFFFF"></path><path d="M594 103L495 147L589 200Z" fill="#d6dedc" stroke="#FFFFFF"></path><path d="M454 461L499 468L446 386Z" fill="#3f625a" stroke="#FFFFFF"></path><path d="M454 461L461 466L499 468Z" fill="#c2cdcb" stroke="#FFFFFF"></path><path d="M622 161L594 103L589 200Z" fill="#d6dedc" stroke="#FFFFFF"></path><path d="M348 55L333 150L347 147Z" fill="#eaeeed" stroke="#FFFFFF"></path><path d="M347 147L333 150L403 209Z" fill="#517069" stroke="#FFFFFF"></path><path d="M333 150L289 221L403 209Z" fill="#9bada9" stroke="#FFFFFF"></path><path d="M624 49L530 55L543 85Z" fill="#758e89" stroke="#FFFFFF"></path><path d="M543 85L530 55L499 79Z" fill="#eaeeed" stroke="#FFFFFF"></path><path d="M499 79L452 0L467 80Z" fill="#c2cdcb" stroke="#FFFFFF"></path><path d="M333 150L277 223L289 221Z" fill="#c2cdcb" stroke="#FFFFFF"></path><path d="M289 221L264 262L312 280Z" fill="#3f625a" stroke="#FFFFFF"></path><path d="M308 444L385 471L401 377Z" fill="#c2cdcb" stroke="#FFFFFF"></path><path d="M454 461L387 506L461 466Z" fill="#ffffff" stroke="#FFFFFF"></path><path d="M557 576L568 500L499 468Z" fill="#3f625a" stroke="#FFFFFF"></path><path d="M260 342L367 296L312 280Z" fill="#758e89" stroke="#FFFFFF"></path><path d="M277 223L264 262L289 221Z" fill="#c2cdcb" stroke="#FFFFFF"></path><path d="M752 260L703 175L634 218Z" fill="#3f625a" stroke="#FFFFFF"></path><path d="M685 92L624 49L594 103Z" fill="#3f625a" stroke="#FFFFFF"></path><path d="M594 103L624 49L543 85Z" fill="#3f625a" stroke="#FFFFFF"></path><path d="M595 508L644 458L579 432Z" fill="#c2cdcb" stroke="#FFFFFF"></path><path d="M579 432L644 458L626 356Z" fill="#c2cdcb" stroke="#FFFFFF"></path><path d="M672 302L752 260L634 218Z" fill="#9bada9" stroke="#FFFFFF"></path><path d="M435 568L499 468L461 466Z" fill="#eaeeed" stroke="#FFFFFF"></path><path d="M499 468L568 500L579 432Z" fill="#889d99" stroke="#FFFFFF"></path><path d="M264 262L260 342L312 280Z" fill="#9bada9" stroke="#FFFFFF"></path><path d="M260 342L308 444L401 377Z" fill="#c2cdcb" stroke="#FFFFFF"></path><path d="M644 458L706 412L626 356Z" fill="#758e89" stroke="#FFFFFF"></path><path d="M352 518L387 506L385 471Z" fill="#c2cdcb" stroke="#FFFFFF"></path><path d="M385 471L387 506L454 461Z" fill="#eaeeed" stroke="#FFFFFF"></path><path d="M557 576L595 508L568 500Z" fill="#aebdba" stroke="#FFFFFF"></path><path d="M568 500L595 508L579 432Z" fill="#eaeeed" stroke="#FFFFFF"></path><path d="M644 458L681 469L706 412Z" fill="#517069" stroke="#FFFFFF"></path><path d="M748 360L744 325L672 302Z" fill="#eaeeed" stroke="#FFFFFF"></path><path d="M685 92L594 103L622 161Z" fill="#ffffff" stroke="#FFFFFF"></path><path d="M744 325L752 260L672 302Z" fill="#aebdba" stroke="#FFFFFF"></path><path d="M395 0L348 55L441 91Z" fill="#d6dedc" stroke="#FFFFFF"></path><path d="M441 91L348 55L383 152Z" fill="#c2cdcb" stroke="#FFFFFF"></path><path d="M333 150L205 138L277 223Z" fill="#aebdba" stroke="#FFFFFF"></path><path d="M445 0L441 91L467 80Z" fill="#637f79" stroke="#FFFFFF"></path><path d="M452 0L499 79L530 55Z" fill="#3f625a" stroke="#FFFFFF"></path><path d="M751 98L685 92L703 175Z" fill="#c2cdcb" stroke="#FFFFFF"></path><path d="M703 175L685 92L622 161Z" fill="#9bada9" stroke="#FFFFFF"></path><path d="M760 237L742 176L703 175Z" fill="#eaeeed" stroke="#FFFFFF"></path><path d="M805 272L760 237L752 260Z" fill="#3f625a" stroke="#FFFFFF"></path><path d="M752 260L760 237L703 175Z" fill="#3f625a" stroke="#FFFFFF"></path><path d="M706 412L748 360L672 302Z" fill="#758e89" stroke="#FFFFFF"></path><path d="M744 325L805 272L752 260Z" fill="#889d99" stroke="#FFFFFF"></path><path d="M264 262L223 304L260 342Z" fill="#c2cdcb" stroke="#FFFFFF"></path><path d="M250 421L268 439L308 444Z" fill="#d6dedc" stroke="#FFFFFF"></path><path d="M206 231L223 304L264 262Z" fill="#637f79" stroke="#FFFFFF"></path><path d="M206 231L264 262L277 223Z" fill="#517069" stroke="#FFFFFF"></path><path d="M654 519L681 469L644 458Z" fill="#aebdba" stroke="#FFFFFF"></path><path d="M706 412L762 375L748 360Z" fill="#517069" stroke="#FFFFFF"></path><path d="M570 0L452 0L530 55Z" fill="#9bada9" stroke="#FFFFFF"></path><path d="M452 0L445 0L467 80Z" fill="#758e89" stroke="#FFFFFF"></path><path d="M687 64L661 52L685 92Z" fill="#637f79" stroke="#FFFFFF"></path><path d="M685 92L661 52L624 49Z" fill="#3f625a" stroke="#FFFFFF"></path><path d="M576 0L570 0L530 55Z" fill="#aebdba" stroke="#FFFFFF"></path><path d="M250 421L308 444L260 342Z" fill="#889d99" stroke="#FFFFFF"></path><path d="M308 444L352 518L385 471Z" fill="#3f625a" stroke="#FFFFFF"></path><path d="M266 520L352 518L308 444Z" fill="#758e89" stroke="#FFFFFF"></path><path d="M387 506L435 568L461 466Z" fill="#eaeeed" stroke="#FFFFFF"></path><path d="M576 0L530 55L624 49Z" fill="#d6dedc" stroke="#FFFFFF"></path><path d="M213 388L250 421L260 342Z" fill="#d6dedc" stroke="#FFFFFF"></path><path d="M624 0L576 0L624 49Z" fill="#eaeeed" stroke="#FFFFFF"></path><path d="M736 68L687 64L685 92Z" fill="#aebdba" stroke="#FFFFFF"></path><path d="M661 52L624 0L624 49Z" fill="#637f79" stroke="#FFFFFF"></path><path d="M258 68L274 85L348 55Z" fill="#eaeeed" stroke="#FFFFFF"></path><path d="M348 55L274 85L333 150Z" fill="#ffffff" stroke="#FFFFFF"></path><path d="M802 446L762 375L706 412Z" fill="#517069" stroke="#FFFFFF"></path><path d="M748 360L776 366L744 325Z" fill="#d6dedc" stroke="#FFFFFF"></path><path d="M274 85L272 87L333 150Z" fill="#637f79" stroke="#FFFFFF"></path><path d="M205 138L206 231L277 223Z" fill="#d6dedc" stroke="#FFFFFF"></path><path d="M223 304L209 334L260 342Z" fill="#ffffff" stroke="#FFFFFF"></path><path d="M445 0L395 0L441 91Z" fill="#637f79" stroke="#FFFFFF"></path><path d="M195 320L209 334L223 304Z" fill="#c2cdcb" stroke="#FFFFFF"></path><path d="M615 565L654 519L595 508Z" fill="#517069" stroke="#FFFFFF"></path><path d="M595 508L654 519L644 458Z" fill="#aebdba" stroke="#FFFFFF"></path><path d="M802 446L776 366L762 375Z" fill="#ffffff" stroke="#FFFFFF"></path><path d="M802 446L706 412L788 493Z" fill="#517069" stroke="#FFFFFF"></path><path d="M762 375L776 366L748 360Z" fill="#9bada9" stroke="#FFFFFF"></path><path d="M391 600L435 568L387 506Z" fill="#889d99" stroke="#FFFFFF"></path><path d="M153 186L194 233L206 231Z" fill="#c2cdcb" stroke="#FFFFFF"></path><path d="M206 231L194 233L223 304Z" fill="#637f79" stroke="#FFFFFF"></path><path d="M161 265L195 320L223 304Z" fill="#758e89" stroke="#FFFFFF"></path><path d="M209 334L213 388L260 342Z" fill="#637f79" stroke="#FFFFFF"></path><path d="M153 330L213 388L209 334Z" fill="#637f79" stroke="#FFFFFF"></path><path d="M200 499L266 520L268 439Z" fill="#3f625a" stroke="#FFFFFF"></path><path d="M268 439L266 520L308 444Z" fill="#ffffff" stroke="#FFFFFF"></path><path d="M704 0L624 0L661 52Z" fill="#517069" stroke="#FFFFFF"></path><path d="M518 600L557 576L499 468Z" fill="#758e89" stroke="#FFFFFF"></path><path d="M274 85L258 68L272 87Z" fill="#9bada9" stroke="#FFFFFF"></path><path d="M272 87L205 138L333 150Z" fill="#d6dedc" stroke="#FFFFFF"></path><path d="M249 25L258 68L273 0Z" fill="#eaeeed" stroke="#FFFFFF"></path><path d="M742 176L751 98L703 175Z" fill="#aebdba" stroke="#FFFFFF"></path><path d="M687 64L704 0L661 52Z" fill="#637f79" stroke="#FFFFFF"></path><path d="M866 151L751 98L742 176Z" fill="#d6dedc" stroke="#FFFFFF"></path><path d="M838 198L742 176L760 237Z" fill="#9bada9" stroke="#FFFFFF"></path><path d="M803 343L805 272L744 325Z" fill="#3f625a" stroke="#FFFFFF"></path><path d="M557 576L615 565L595 508Z" fill="#9bada9" stroke="#FFFFFF"></path><path d="M199 130L205 138L272 87Z" fill="#889d99" stroke="#FFFFFF"></path><path d="M751 98L736 68L685 92Z" fill="#889d99" stroke="#FFFFFF"></path><path d="M842 405L803 343L776 366Z" fill="#c2cdcb" stroke="#FFFFFF"></path><path d="M776 366L803 343L744 325Z" fill="#d6dedc" stroke="#FFFFFF"></path><path d="M824 306L816 268L805 272Z" fill="#ffffff" stroke="#FFFFFF"></path><path d="M805 272L816 268L760 237Z" fill="#3f625a" stroke="#FFFFFF"></path><path d="M258 68L199 130L272 87Z" fill="#637f79" stroke="#FFFFFF"></path><path d="M205 138L153 186L206 231Z" fill="#d6dedc" stroke="#FFFFFF"></path><path d="M435 568L518 600L499 468Z" fill="#aebdba" stroke="#FFFFFF"></path><path d="M557 576L582 600L615 565Z" fill="#c2cdcb" stroke="#FFFFFF"></path><path d="M435 568L456 600L518 600Z" fill="#aebdba" stroke="#FFFFFF"></path><path d="M391 600L456 600L435 568Z" fill="#c2cdcb" stroke="#FFFFFF"></path><path d="M153 186L161 265L194 233Z" fill="#d6dedc" stroke="#FFFFFF"></path><path d="M194 233L161 265L223 304Z" fill="#889d99" stroke="#FFFFFF"></path><path d="M140 440L202 453L213 388Z" fill="#aebdba" stroke="#FFFFFF"></path><path d="M803 343L824 306L805 272Z" fill="#517069" stroke="#FFFFFF"></path><path d="M518 600L564 600L557 576Z" fill="#637f79" stroke="#FFFFFF"></path><path d="M202 453L250 421L213 388Z" fill="#d6dedc" stroke="#FFFFFF"></path><path d="M202 453L268 439L250 421Z" fill="#889d99" stroke="#FFFFFF"></path><path d="M352 518L391 600L387 506Z" fill="#3f625a" stroke="#FFFFFF"></path><path d="M623 600L648 574L615 565Z" fill="#eaeeed" stroke="#FFFFFF"></path><path d="M615 565L648 574L654 519Z" fill="#3f625a" stroke="#FFFFFF"></path><path d="M788 493L706 412L681 469Z" fill="#ffffff" stroke="#FFFFFF"></path><path d="M564 600L582 600L557 576Z" fill="#889d99" stroke="#FFFFFF"></path><path d="M153 330L209 334L195 320Z" fill="#9bada9" stroke="#FFFFFF"></path><path d="M280 544L391 600L352 518Z" fill="#758e89" stroke="#FFFFFF"></path><path d="M143 290L153 330L195 320Z" fill="#517069" stroke="#FFFFFF"></path><path d="M255 566L280 544L266 520Z" fill="#d6dedc" stroke="#FFFFFF"></path><path d="M266 520L280 544L352 518Z" fill="#d6dedc" stroke="#FFFFFF"></path><path d="M737 0L704 0L736 68Z" fill="#c2cdcb" stroke="#FFFFFF"></path><path d="M736 68L704 0L687 64Z" fill="#d6dedc" stroke="#FFFFFF"></path><path d="M258 68L183 55L199 130Z" fill="#c2cdcb" stroke="#FFFFFF"></path><path d="M273 0L258 68L348 55Z" fill="#9bada9" stroke="#FFFFFF"></path><path d="M161 265L143 290L195 320Z" fill="#3f625a" stroke="#FFFFFF"></path><path d="M74 228L143 290L161 265Z" fill="#c2cdcb" stroke="#FFFFFF"></path><path d="M395 0L273 0L348 55Z" fill="#637f79" stroke="#FFFFFF"></path><path d="M99 159L153 186L199 130Z" fill="#3f625a" stroke="#FFFFFF"></path><path d="M199 130L153 186L205 138Z" fill="#c2cdcb" stroke="#FFFFFF"></path><path d="M582 600L623 600L615 565Z" fill="#9bada9" stroke="#FFFFFF"></path><path d="M900 242L838 198L816 268Z" fill="#c2cdcb" stroke="#FFFFFF"></path><path d="M816 268L838 198L760 237Z" fill="#eaeeed" stroke="#FFFFFF"></path><path d="M849 0L737 0L736 68Z" fill="#ffffff" stroke="#FFFFFF"></path><path d="M713 554L654 519L648 574Z" fill="#637f79" stroke="#FFFFFF"></path><path d="M713 554L681 469L654 519Z" fill="#889d99" stroke="#FFFFFF"></path><path d="M900 323L900 313L824 306Z" fill="#758e89" stroke="#FFFFFF"></path><path d="M749 600L713 554L648 574Z" fill="#c2cdcb" stroke="#FFFFFF"></path><path d="M713 554L750 529L681 469Z" fill="#3f625a" stroke="#FFFFFF"></path><path d="M867 44L736 68L751 98Z" fill="#517069" stroke="#FFFFFF"></path><path d="M750 529L788 493L681 469Z" fill="#3f625a" stroke="#FFFFFF"></path><path d="M140 440L200 499L202 453Z" fill="#637f79" stroke="#FFFFFF"></path><path d="M202 453L200 499L268 439Z" fill="#637f79" stroke="#FFFFFF"></path><path d="M802 446L842 405L776 366Z" fill="#d6dedc" stroke="#FFFFFF"></path><path d="M900 162L866 151L838 198Z" fill="#d6dedc" stroke="#FFFFFF"></path><path d="M900 410L842 405L900 494Z" fill="#3f625a" stroke="#FFFFFF"></path><path d="M200 499L255 566L266 520Z" fill="#eaeeed" stroke="#FFFFFF"></path><path d="M280 544L258 600L391 600Z" fill="#aebdba" stroke="#FFFFFF"></path><path d="M219 0L183 55L249 25Z" fill="#c2cdcb" stroke="#FFFFFF"></path><path d="M249 25L183 55L258 68Z" fill="#889d99" stroke="#FFFFFF"></path><path d="M273 0L219 0L249 25Z" fill="#9bada9" stroke="#FFFFFF"></path><path d="M153 330L140 440L213 388Z" fill="#889d99" stroke="#FFFFFF"></path><path d="M251 600L258 600L255 566Z" fill="#637f79" stroke="#FFFFFF"></path><path d="M102 405L140 440L153 330Z" fill="#758e89" stroke="#FFFFFF"></path><path d="M88 334L104 328L57 321Z" fill="#ffffff" stroke="#FFFFFF"></path><path d="M143 290L104 328L153 330Z" fill="#eaeeed" stroke="#FFFFFF"></path><path d="M104 328L143 290L74 228Z" fill="#eaeeed" stroke="#FFFFFF"></path><path d="M900 242L816 268L900 313Z" fill="#889d99" stroke="#FFFFFF"></path><path d="M838 198L866 151L742 176Z" fill="#517069" stroke="#FFFFFF"></path><path d="M750 529L802 527L788 493Z" fill="#9bada9" stroke="#FFFFFF"></path><path d="M788 493L900 494L802 446Z" fill="#aebdba" stroke="#FFFFFF"></path><path d="M785 600L802 527L750 529Z" fill="#ffffff" stroke="#FFFFFF"></path><path d="M749 600L750 529L713 554Z" fill="#ffffff" stroke="#FFFFFF"></path><path d="M255 566L258 600L280 544Z" fill="#889d99" stroke="#FFFFFF"></path><path d="M251 600L255 566L192 600Z" fill="#758e89" stroke="#FFFFFF"></path><path d="M192 600L255 566L200 499Z" fill="#aebdba" stroke="#FFFFFF"></path><path d="M900 313L816 268L824 306Z" fill="#d6dedc" stroke="#FFFFFF"></path><path d="M824 306L803 343L900 323Z" fill="#889d99" stroke="#FFFFFF"></path><path d="M74 228L161 265L153 186Z" fill="#d6dedc" stroke="#FFFFFF"></path><path d="M104 328L102 405L153 330Z" fill="#758e89" stroke="#FFFFFF"></path><path d="M900 323L803 343L842 405Z" fill="#758e89" stroke="#FFFFFF"></path><path d="M91 143L199 130L88 101Z" fill="#517069" stroke="#FFFFFF"></path><path d="M91 143L99 159L199 130Z" fill="#c2cdcb" stroke="#FFFFFF"></path><path d="M900 410L900 323L842 405Z" fill="#517069" stroke="#FFFFFF"></path><path d="M88 334L102 405L104 328Z" fill="#c2cdcb" stroke="#FFFFFF"></path><path d="M156 600L192 600L200 499Z" fill="#c2cdcb" stroke="#FFFFFF"></path><path d="M623 600L749 600L648 574Z" fill="#c2cdcb" stroke="#FFFFFF"></path><path d="M99 159L74 228L153 186Z" fill="#889d99" stroke="#FFFFFF"></path><path d="M88 101L199 130L183 55Z" fill="#d6dedc" stroke="#FFFFFF"></path><path d="M0 179L0 209L74 228Z" fill="#ffffff" stroke="#FFFFFF"></path><path d="M900 242L900 162L838 198Z" fill="#9bada9" stroke="#FFFFFF"></path><path d="M866 151L867 44L751 98Z" fill="#637f79" stroke="#FFFFFF"></path><path d="M900 162L900 152L866 151Z" fill="#eaeeed" stroke="#FFFFFF"></path><path d="M900 494L842 405L802 446Z" fill="#637f79" stroke="#FFFFFF"></path><path d="M900 494L788 493L802 527Z" fill="#517069" stroke="#FFFFFF"></path><path d="M219 0L156 0L183 55Z" fill="#d6dedc" stroke="#FFFFFF"></path><path d="M74 228L57 321L104 328Z" fill="#637f79" stroke="#FFFFFF"></path><path d="M88 334L28 381L102 405Z" fill="#637f79" stroke="#FFFFFF"></path><path d="M900 58L867 44L866 151Z" fill="#637f79" stroke="#FFFFFF"></path><path d="M749 600L785 600L750 529Z" fill="#889d99" stroke="#FFFFFF"></path><path d="M90 84L88 101L183 55Z" fill="#758e89" stroke="#FFFFFF"></path><path d="M0 209L0 276L74 228Z" fill="#aebdba" stroke="#FFFFFF"></path><path d="M0 368L28 381L57 321Z" fill="#ffffff" stroke="#FFFFFF"></path><path d="M100 527L140 440L35 497Z" fill="#aebdba" stroke="#FFFFFF"></path><path d="M100 527L200 499L140 440Z" fill="#c2cdcb" stroke="#FFFFFF"></path><path d="M98 53L90 84L183 55Z" fill="#3f625a" stroke="#FFFFFF"></path><path d="M0 276L57 321L74 228Z" fill="#758e89" stroke="#FFFFFF"></path><path d="M867 44L849 0L736 68Z" fill="#517069" stroke="#FFFFFF"></path><path d="M156 0L98 53L183 55Z" fill="#3f625a" stroke="#FFFFFF"></path><path d="M900 152L900 58L866 151Z" fill="#889d99" stroke="#FFFFFF"></path><path d="M867 44L900 0L849 0Z" fill="#889d99" stroke="#FFFFFF"></path><path d="M900 568L900 494L802 527Z" fill="#d6dedc" stroke="#FFFFFF"></path><path d="M35 497L140 440L102 405Z" fill="#c2cdcb" stroke="#FFFFFF"></path><path d="M100 527L156 600L200 499Z" fill="#ffffff" stroke="#FFFFFF"></path><path d="M156 0L105 0L98 53Z" fill="#637f79" stroke="#FFFFFF"></path><path d="M91 143L88 101L0 120Z" fill="#aebdba" stroke="#FFFFFF"></path><path d="M99 159L0 179L74 228Z" fill="#637f79" stroke="#FFFFFF"></path><path d="M57 321L28 381L88 334Z" fill="#aebdba" stroke="#FFFFFF"></path><path d="M91 143L0 179L99 159Z" fill="#ffffff" stroke="#FFFFFF"></path><path d="M900 58L900 0L867 44Z" fill="#d6dedc" stroke="#FFFFFF"></path><path d="M91 143L0 120L0 179Z" fill="#c2cdcb" stroke="#FFFFFF"></path><path d="M88 101L0 94L0 120Z" fill="#889d99" stroke="#FFFFFF"></path><path d="M0 94L90 84L98 53Z" fill="#aebdba" stroke="#FFFFFF"></path><path d="M0 276L0 368L57 321Z" fill="#517069" stroke="#FFFFFF"></path><path d="M28 381L35 497L102 405Z" fill="#ffffff" stroke="#FFFFFF"></path><path d="M785 600L874 600L802 527Z" fill="#eaeeed" stroke="#FFFFFF"></path><path d="M874 600L900 568L802 527Z" fill="#3f625a" stroke="#FFFFFF"></path><path d="M0 368L0 385L28 381Z" fill="#758e89" stroke="#FFFFFF"></path><path d="M0 385L35 497L28 381Z" fill="#3f625a" stroke="#FFFFFF"></path><path d="M100 527L88 600L156 600Z" fill="#758e89" stroke="#FFFFFF"></path><path d="M105 0L62 0L98 53Z" fill="#889d99" stroke="#FFFFFF"></path><path d="M0 94L88 101L90 84Z" fill="#889d99" stroke="#FFFFFF"></path><path d="M22 553L88 600L100 527Z" fill="#c2cdcb" stroke="#FFFFFF"></path><path d="M874 600L900 600L900 568Z" fill="#3f625a" stroke="#FFFFFF"></path><path d="M62 0L0 94L98 53Z" fill="#889d99" stroke="#FFFFFF"></path><path d="M0 385L0 496L35 497Z" fill="#758e89" stroke="#FFFFFF"></path><path d="M35 497L22 553L100 527Z" fill="#eaeeed" stroke="#FFFFFF"></path><path d="M0 513L22 553L35 497Z" fill="#eaeeed" stroke="#FFFFFF"></path><path d="M0 496L0 513L35 497Z" fill="#3f625a" stroke="#FFFFFF"></path><path d="M62 0L0 0L0 94Z" fill="#637f79" stroke="#FFFFFF"></path><path d="M0 513L0 600L22 553Z" fill="#637f79" stroke="#FFFFFF"></path><path d="M22 553L0 600L88 600Z" fill="#3f625a" stroke="#FFFFFF"></path></g></svg>