<svg id="visual" viewBox="0 0 900 600" width="900" height="600" xmlns="http://www.w3.org/2000/svg" xmlns:xlink="http://www.w3.org/1999/xlink" version="1.1"><g stroke-width="1" stroke-linejoin="bevel"><path d="M461 280L502 326L483 268Z" fill="#113327" stroke="#FFFFFF"></path><path d="M461 280L469 365L502 326Z" fill="#5b7553" stroke="#FFFFFF"></path><path d="M469 365L531 363L502 326Z" fill="#3d5c42" stroke="#FFFFFF"></path><path d="M502 326L596 294L483 268Z" fill="#1a3b2c" stroke="#FFFFFF"></path><path d="M531 363L596 294L502 326Z" fill="#3d5c42" stroke="#FFFFFF"></path><path d="M461 280L391 365L469 365Z" fill="#1a3b2c" stroke="#FFFFFF"></path><path d="M483 268L433 191L461 280Z" fill="#3d5c42" stroke="#FFFFFF"></path><path d="M461 280L360 349L391 365Z" fill="#5b7553" stroke="#FFFFFF"></path><path d="M588 208L433 191L483 268Z" fill="#34533d" stroke="#FFFFFF"></path><path d="M433 191L380 220L461 280Z" fill="#092c21" stroke="#FFFFFF"></path><path d="M469 365L536 423L531 363Z" fill="#5b7553" stroke="#FFFFFF"></path><path d="M531 363L625 356L596 294Z" fill="#5b7553" stroke="#FFFFFF"></path><path d="M430 428L536 423L469 365Z" fill="#113327" stroke="#FFFFFF"></path><path d="M380 220L360 349L461 280Z" fill="#2b4b37" stroke="#FFFFFF"></path><path d="M596 294L588 208L483 268Z" fill="#1a3b2c" stroke="#FFFFFF"></path><path d="M367 469L430 428L391 365Z" fill="#1a3b2c" stroke="#FFFFFF"></path><path d="M391 365L430 428L469 365Z" fill="#3d5c42" stroke="#FFFFFF"></path><path d="M632 406L625 356L531 363Z" fill="#476448" stroke="#FFFFFF"></path><path d="M704 259L594 185L588 208Z" fill="#092c21" stroke="#FFFFFF"></path><path d="M588 208L446 149L433 191Z" fill="#02241c" stroke="#FFFFFF"></path><path d="M433 191L337 170L380 220Z" fill="#516c4d" stroke="#FFFFFF"></path><path d="M704 259L588 208L596 294Z" fill="#1a3b2c" stroke="#FFFFFF"></path><path d="M588 208L481 120L446 149Z" fill="#113327" stroke="#FFFFFF"></path><path d="M531 116L481 120L588 208Z" fill="#1a3b2c" stroke="#FFFFFF"></path><path d="M536 423L632 406L531 363Z" fill="#092c21" stroke="#FFFFFF"></path><path d="M337 170L304 251L380 220Z" fill="#2b4b37" stroke="#FFFFFF"></path><path d="M380 220L304 251L360 349Z" fill="#224332" stroke="#FFFFFF"></path><path d="M337 170L433 191L446 149Z" fill="#224332" stroke="#FFFFFF"></path><path d="M594 185L531 116L588 208Z" fill="#224332" stroke="#FFFFFF"></path><path d="M633 472L640 410L632 406Z" fill="#516c4d" stroke="#FFFFFF"></path><path d="M632 406L640 410L625 356Z" fill="#224332" stroke="#FFFFFF"></path><path d="M625 356L704 259L596 294Z" fill="#516c4d" stroke="#FFFFFF"></path><path d="M386 69L337 170L446 149Z" fill="#3d5c42" stroke="#FFFFFF"></path><path d="M360 349L367 469L391 365Z" fill="#02241c" stroke="#FFFFFF"></path><path d="M430 428L458 514L536 423Z" fill="#092c21" stroke="#FFFFFF"></path><path d="M536 423L633 472L632 406Z" fill="#3d5c42" stroke="#FFFFFF"></path><path d="M273 428L367 469L360 349Z" fill="#02241c" stroke="#FFFFFF"></path><path d="M367 469L458 514L430 428Z" fill="#113327" stroke="#FFFFFF"></path><path d="M304 251L271 337L360 349Z" fill="#224332" stroke="#FFFFFF"></path><path d="M337 170L292 196L304 251Z" fill="#2b4b37" stroke="#FFFFFF"></path><path d="M304 251L196 340L271 337Z" fill="#476448" stroke="#FFFFFF"></path><path d="M721 317L704 259L625 356Z" fill="#113327" stroke="#FFFFFF"></path><path d="M570 48L550 58L531 116Z" fill="#092c21" stroke="#FFFFFF"></path><path d="M525 545L633 472L536 423Z" fill="#3d5c42" stroke="#FFFFFF"></path><path d="M640 410L721 317L625 356Z" fill="#2b4b37" stroke="#FFFFFF"></path><path d="M705 430L721 317L640 410Z" fill="#516c4d" stroke="#FFFFFF"></path><path d="M196 340L261 377L271 337Z" fill="#1a3b2c" stroke="#FFFFFF"></path><path d="M271 337L261 377L360 349Z" fill="#5b7553" stroke="#FFFFFF"></path><path d="M273 428L328 490L367 469Z" fill="#224332" stroke="#FFFFFF"></path><path d="M367 469L347 556L458 514Z" fill="#2b4b37" stroke="#FFFFFF"></path><path d="M261 377L273 428L360 349Z" fill="#34533d" stroke="#FFFFFF"></path><path d="M520 600L525 545L458 514Z" fill="#2b4b37" stroke="#FFFFFF"></path><path d="M458 514L525 545L536 423Z" fill="#113327" stroke="#FFFFFF"></path><path d="M570 48L531 116L594 185Z" fill="#113327" stroke="#FFFFFF"></path><path d="M531 116L550 58L481 120Z" fill="#476448" stroke="#FFFFFF"></path><path d="M481 120L386 69L446 149Z" fill="#1a3b2c" stroke="#FFFFFF"></path><path d="M411 0L386 69L481 120Z" fill="#1a3b2c" stroke="#FFFFFF"></path><path d="M301 112L255 175L292 196Z" fill="#02241c" stroke="#FFFFFF"></path><path d="M686 531L705 430L633 472Z" fill="#1a3b2c" stroke="#FFFFFF"></path><path d="M633 472L705 430L640 410Z" fill="#476448" stroke="#FFFFFF"></path><path d="M794 232L716 181L704 259Z" fill="#02241c" stroke="#FFFFFF"></path><path d="M704 259L716 181L594 185Z" fill="#5b7553" stroke="#FFFFFF"></path><path d="M301 112L292 196L337 170Z" fill="#2b4b37" stroke="#FFFFFF"></path><path d="M292 196L255 175L304 251Z" fill="#02241c" stroke="#FFFFFF"></path><path d="M334 71L301 112L337 170Z" fill="#5b7553" stroke="#FFFFFF"></path><path d="M709 86L570 48L594 185Z" fill="#2b4b37" stroke="#FFFFFF"></path><path d="M550 58L538 0L481 120Z" fill="#092c21" stroke="#FFFFFF"></path><path d="M520 600L550 559L525 545Z" fill="#1a3b2c" stroke="#FFFFFF"></path><path d="M525 545L550 559L633 472Z" fill="#3d5c42" stroke="#FFFFFF"></path><path d="M705 430L757 321L721 317Z" fill="#113327" stroke="#FFFFFF"></path><path d="M721 317L757 321L704 259Z" fill="#02241c" stroke="#FFFFFF"></path><path d="M334 0L334 71L386 69Z" fill="#02241c" stroke="#FFFFFF"></path><path d="M386 69L334 71L337 170Z" fill="#476448" stroke="#FFFFFF"></path><path d="M273 428L301 508L328 490Z" fill="#113327" stroke="#FFFFFF"></path><path d="M328 490L347 556L367 469Z" fill="#3d5c42" stroke="#FFFFFF"></path><path d="M301 508L347 556L328 490Z" fill="#476448" stroke="#FFFFFF"></path><path d="M155 290L196 340L304 251Z" fill="#2b4b37" stroke="#FFFFFF"></path><path d="M261 377L150 399L273 428Z" fill="#2b4b37" stroke="#FFFFFF"></path><path d="M273 428L268 505L301 508Z" fill="#476448" stroke="#FFFFFF"></path><path d="M142 420L268 505L273 428Z" fill="#34533d" stroke="#FFFFFF"></path><path d="M301 508L264 600L347 556Z" fill="#476448" stroke="#FFFFFF"></path><path d="M411 600L520 600L458 514Z" fill="#3d5c42" stroke="#FFFFFF"></path><path d="M635 600L686 531L633 472Z" fill="#092c21" stroke="#FFFFFF"></path><path d="M629 0L538 0L570 48Z" fill="#224332" stroke="#FFFFFF"></path><path d="M570 48L538 0L550 58Z" fill="#476448" stroke="#FFFFFF"></path><path d="M635 600L633 472L550 559Z" fill="#092c21" stroke="#FFFFFF"></path><path d="M705 430L792 411L757 321Z" fill="#1a3b2c" stroke="#FFFFFF"></path><path d="M538 0L411 0L481 120Z" fill="#2b4b37" stroke="#FFFFFF"></path><path d="M733 109L709 86L716 181Z" fill="#1a3b2c" stroke="#FFFFFF"></path><path d="M716 181L709 86L594 185Z" fill="#092c21" stroke="#FFFFFF"></path><path d="M264 600L411 600L347 556Z" fill="#02241c" stroke="#FFFFFF"></path><path d="M347 556L411 600L458 514Z" fill="#476448" stroke="#FFFFFF"></path><path d="M786 97L733 109L828 168Z" fill="#02241c" stroke="#FFFFFF"></path><path d="M855 290L794 232L757 321Z" fill="#224332" stroke="#FFFFFF"></path><path d="M757 321L794 232L704 259Z" fill="#5b7553" stroke="#FFFFFF"></path><path d="M793 473L792 411L705 430Z" fill="#3d5c42" stroke="#FFFFFF"></path><path d="M794 232L803 211L716 181Z" fill="#34533d" stroke="#FFFFFF"></path><path d="M855 290L803 211L794 232Z" fill="#1a3b2c" stroke="#FFFFFF"></path><path d="M182 163L155 290L255 175Z" fill="#3d5c42" stroke="#FFFFFF"></path><path d="M255 175L155 290L304 251Z" fill="#3d5c42" stroke="#FFFFFF"></path><path d="M196 340L150 399L261 377Z" fill="#1a3b2c" stroke="#FFFFFF"></path><path d="M182 163L255 175L182 124Z" fill="#5b7553" stroke="#FFFFFF"></path><path d="M709 86L629 0L570 48Z" fill="#3d5c42" stroke="#FFFFFF"></path><path d="M701 0L629 0L709 86Z" fill="#1a3b2c" stroke="#FFFFFF"></path><path d="M182 124L255 175L301 112Z" fill="#3d5c42" stroke="#FFFFFF"></path><path d="M299 0L301 112L334 71Z" fill="#476448" stroke="#FFFFFF"></path><path d="M411 0L334 0L386 69Z" fill="#1a3b2c" stroke="#FFFFFF"></path><path d="M520 600L635 600L550 559Z" fill="#02241c" stroke="#FFFFFF"></path><path d="M686 531L793 473L705 430Z" fill="#113327" stroke="#FFFFFF"></path><path d="M792 411L823 351L757 321Z" fill="#1a3b2c" stroke="#FFFFFF"></path><path d="M88 349L150 399L196 340Z" fill="#34533d" stroke="#FFFFFF"></path><path d="M198 0L182 124L301 112Z" fill="#113327" stroke="#FFFFFF"></path><path d="M182 163L111 238L155 290Z" fill="#02241c" stroke="#FFFFFF"></path><path d="M334 0L299 0L334 71Z" fill="#02241c" stroke="#FFFFFF"></path><path d="M785 531L793 473L686 531Z" fill="#092c21" stroke="#FFFFFF"></path><path d="M900 371L900 345L823 351Z" fill="#5b7553" stroke="#FFFFFF"></path><path d="M182 124L160 154L182 163Z" fill="#113327" stroke="#FFFFFF"></path><path d="M92 402L142 420L150 399Z" fill="#476448" stroke="#FFFFFF"></path><path d="M828 168L733 109L716 181Z" fill="#224332" stroke="#FFFFFF"></path><path d="M733 109L786 97L709 86Z" fill="#3d5c42" stroke="#FFFFFF"></path><path d="M88 349L196 340L155 290Z" fill="#2b4b37" stroke="#FFFFFF"></path><path d="M150 399L142 420L273 428Z" fill="#34533d" stroke="#FFFFFF"></path><path d="M900 178L828 168L803 211Z" fill="#1a3b2c" stroke="#FFFFFF"></path><path d="M803 211L828 168L716 181Z" fill="#476448" stroke="#FFFFFF"></path><path d="M704 0L701 0L709 86Z" fill="#516c4d" stroke="#FFFFFF"></path><path d="M900 345L855 290L823 351Z" fill="#2b4b37" stroke="#FFFFFF"></path><path d="M823 351L855 290L757 321Z" fill="#476448" stroke="#FFFFFF"></path><path d="M786 97L704 0L709 86Z" fill="#113327" stroke="#FFFFFF"></path><path d="M635 600L702 600L686 531Z" fill="#516c4d" stroke="#FFFFFF"></path><path d="M182 571L264 600L268 505Z" fill="#2b4b37" stroke="#FFFFFF"></path><path d="M268 505L264 600L301 508Z" fill="#476448" stroke="#FFFFFF"></path><path d="M736 600L785 531L686 531Z" fill="#34533d" stroke="#FFFFFF"></path><path d="M900 371L823 351L792 411Z" fill="#2b4b37" stroke="#FFFFFF"></path><path d="M828 168L807 98L786 97Z" fill="#113327" stroke="#FFFFFF"></path><path d="M786 97L825 0L704 0Z" fill="#516c4d" stroke="#FFFFFF"></path><path d="M160 154L111 238L182 163Z" fill="#2b4b37" stroke="#FFFFFF"></path><path d="M702 600L736 600L686 531Z" fill="#092c21" stroke="#FFFFFF"></path><path d="M83 255L88 349L155 290Z" fill="#3d5c42" stroke="#FFFFFF"></path><path d="M142 420L182 571L268 505Z" fill="#3d5c42" stroke="#FFFFFF"></path><path d="M88 191L83 255L111 238Z" fill="#224332" stroke="#FFFFFF"></path><path d="M111 238L83 255L155 290Z" fill="#113327" stroke="#FFFFFF"></path><path d="M88 191L111 238L160 154Z" fill="#3d5c42" stroke="#FFFFFF"></path><path d="M88 349L92 402L150 399Z" fill="#113327" stroke="#FFFFFF"></path><path d="M92 497L182 571L142 420Z" fill="#02241c" stroke="#FFFFFF"></path><path d="M736 600L808 551L785 531Z" fill="#5b7553" stroke="#FFFFFF"></path><path d="M785 531L808 551L793 473Z" fill="#02241c" stroke="#FFFFFF"></path><path d="M34 94L88 191L160 154Z" fill="#113327" stroke="#FFFFFF"></path><path d="M149 40L160 154L182 124Z" fill="#2b4b37" stroke="#FFFFFF"></path><path d="M299 0L198 0L301 112Z" fill="#34533d" stroke="#FFFFFF"></path><path d="M900 371L792 411L900 497Z" fill="#02241c" stroke="#FFFFFF"></path><path d="M855 290L900 178L803 211Z" fill="#1a3b2c" stroke="#FFFFFF"></path><path d="M828 168L900 144L807 98Z" fill="#3d5c42" stroke="#FFFFFF"></path><path d="M900 497L792 411L793 473Z" fill="#476448" stroke="#FFFFFF"></path><path d="M198 0L149 40L182 124Z" fill="#516c4d" stroke="#FFFFFF"></path><path d="M184 0L149 40L198 0Z" fill="#3d5c42" stroke="#FFFFFF"></path><path d="M900 345L900 178L855 290Z" fill="#5b7553" stroke="#FFFFFF"></path><path d="M807 98L825 0L786 97Z" fill="#476448" stroke="#FFFFFF"></path><path d="M116 600L175 600L182 571Z" fill="#476448" stroke="#FFFFFF"></path><path d="M182 571L175 600L264 600Z" fill="#02241c" stroke="#FFFFFF"></path><path d="M0 250L83 255L88 191Z" fill="#224332" stroke="#FFFFFF"></path><path d="M0 250L48 275L83 255Z" fill="#224332" stroke="#FFFFFF"></path><path d="M83 255L48 275L88 349Z" fill="#113327" stroke="#FFFFFF"></path><path d="M88 349L0 359L92 402Z" fill="#2b4b37" stroke="#FFFFFF"></path><path d="M0 401L92 497L92 402Z" fill="#5b7553" stroke="#FFFFFF"></path><path d="M92 402L92 497L142 420Z" fill="#092c21" stroke="#FFFFFF"></path><path d="M900 178L900 144L828 168Z" fill="#516c4d" stroke="#FFFFFF"></path><path d="M900 100L825 0L807 98Z" fill="#02241c" stroke="#FFFFFF"></path><path d="M900 518L900 497L808 551Z" fill="#113327" stroke="#FFFFFF"></path><path d="M808 551L900 497L793 473Z" fill="#224332" stroke="#FFFFFF"></path><path d="M900 144L900 100L807 98Z" fill="#516c4d" stroke="#FFFFFF"></path><path d="M736 600L843 600L808 551Z" fill="#34533d" stroke="#FFFFFF"></path><path d="M843 600L900 518L808 551Z" fill="#02241c" stroke="#FFFFFF"></path><path d="M92 497L116 600L182 571Z" fill="#02241c" stroke="#FFFFFF"></path><path d="M0 178L0 250L88 191Z" fill="#3d5c42" stroke="#FFFFFF"></path><path d="M48 275L0 359L88 349Z" fill="#476448" stroke="#FFFFFF"></path><path d="M92 497L45 600L116 600Z" fill="#476448" stroke="#FFFFFF"></path><path d="M0 250L0 359L48 275Z" fill="#5b7553" stroke="#FFFFFF"></path><path d="M149 40L34 94L160 154Z" fill="#516c4d" stroke="#FFFFFF"></path><path d="M0 68L34 94L38 0Z" fill="#224332" stroke="#FFFFFF"></path><path d="M0 359L0 401L92 402Z" fill="#3d5c42" stroke="#FFFFFF"></path><path d="M0 173L0 178L88 191Z" fill="#02241c" stroke="#FFFFFF"></path><path d="M34 94L0 173L88 191Z" fill="#516c4d" stroke="#FFFFFF"></path><path d="M900 100L900 0L825 0Z" fill="#224332" stroke="#FFFFFF"></path><path d="M843 600L900 600L900 518Z" fill="#516c4d" stroke="#FFFFFF"></path><path d="M0 401L0 517L92 497Z" fill="#516c4d" stroke="#FFFFFF"></path><path d="M0 517L45 600L92 497Z" fill="#3d5c42" stroke="#FFFFFF"></path><path d="M38 0L34 94L149 40Z" fill="#34533d" stroke="#FFFFFF"></path><path d="M34 94L0 68L0 173Z" fill="#02241c" stroke="#FFFFFF"></path><path d="M184 0L38 0L149 40Z" fill="#34533d" stroke="#FFFFFF"></path><path d="M38 0L0 0L0 68Z" fill="#34533d" stroke="#FFFFFF"></path><path d="M0 517L0 600L45 600Z" fill="#113327" stroke="#FFFFFF"></path></g></svg>