<?xml version="1.0" standalone="no"?>
<!DOCTYPE svg PUBLIC "-//W3C//DTD SVG 20010904//EN"
 "http://www.w3.org/TR/2001/REC-SVG-20010904/DTD/svg10.dtd">
<svg version="1.0" xmlns="http://www.w3.org/2000/svg"
 width="752.000000pt" height="752.000000pt" viewBox="0 0 752.000000 752.000000"
 preserveAspectRatio="xMidYMid meet">

<g transform="translate(0.000000,752.000000) scale(0.100000,-0.100000)"
fill="#000000" stroke="none">
<path d="M3585 6011 c-46 -21 -101 -79 -112 -119 -10 -35 -10 -2059 0 -2094
11 -40 66 -98 112 -119 37 -17 83 -19 700 -19 l660 0 292 -195 c161 -107 295
-195 298 -195 3 0 5 88 5 195 l0 195 156 0 c95 0 173 5 198 12 54 17 109 73
125 129 9 34 11 286 9 1070 l-3 1025 -27 41 c-15 22 -44 51 -65 64 l-38 24
-1135 2 c-1081 3 -1137 2 -1175 -16z m1222 -497 c25 -16 43 -70 43 -131 l0
-43 155 0 c116 0 163 -4 184 -14 28 -15 51 -53 51 -86 0 -48 -49 -100 -93
-100 -9 0 -18 -15 -22 -37 -24 -131 -94 -274 -187 -385 -38 -46 -39 -50 -24
-67 9 -10 57 -42 107 -72 66 -38 96 -63 107 -85 18 -39 10 -77 -23 -110 -49
-49 -126 -23 -300 100 l-61 44 -35 -29 c-20 -15 -75 -53 -124 -84 -71 -44 -96
-55 -131 -55 -35 0 -47 5 -68 31 -29 34 -34 83 -12 115 8 11 52 43 98 72 45
28 94 60 107 71 l24 19 -45 53 c-25 30 -50 64 -57 76 -34 66 18 143 97 143 20
0 42 -17 90 -67 l63 -68 35 40 c45 51 98 145 124 220 11 32 20 62 20 66 0 5
-139 9 -310 11 l-310 3 -27 28 c-38 38 -38 96 0 135 l27 27 170 3 170 3 0 59
c0 73 14 104 54 124 33 17 67 14 103 -10z"/>
<path d="M1605 4234 c-45 -23 -76 -55 -96 -99 -18 -38 -19 -90 -19 -1065 0
-977 1 -1027 19 -1065 22 -47 64 -89 104 -104 16 -6 102 -11 198 -11 l169 0 0
-195 c0 -124 4 -195 10 -195 6 0 142 88 303 195 l292 195 663 0 c642 0 664 1
702 20 47 24 84 71 99 125 7 27 11 263 11 733 l0 692 -203 0 c-112 0 -230 5
-263 11 -123 23 -238 112 -292 227 -27 56 -27 60 -30 305 l-3 247 -817 0
c-721 0 -821 -2 -847 -16z m1227 -694 c35 -27 344 -846 334 -886 -11 -43 -50
-74 -94 -74 -56 0 -86 28 -111 103 -12 34 -25 68 -29 75 -7 9 -46 12 -162 10
l-153 -3 -28 -75 c-34 -88 -56 -110 -111 -110 -49 0 -98 43 -98 87 0 45 301
841 329 869 30 30 88 32 123 4z"/>
<path d="M2737 3085 c-20 -53 -37 -101 -37 -106 0 -5 34 -9 76 -9 87 0 84 -14
29 129 l-31 83 -37 -97z"/>
</g>
</svg>
